<?xml version="1.0" encoding="UTF-8" standalone="no"?>
<!-- Created with Inkscape (http://www.inkscape.org/) -->

<svg
   xmlns:dc="http://purl.org/dc/elements/1.1/"
   xmlns:cc="http://creativecommons.org/ns#"
   xmlns:rdf="http://www.w3.org/1999/02/22-rdf-syntax-ns#"
   xmlns:svg="http://www.w3.org/2000/svg"
   xmlns="http://www.w3.org/2000/svg"
   xmlns:sodipodi="http://sodipodi.sourceforge.net/DTD/sodipodi-0.dtd"
   xmlns:inkscape="http://www.inkscape.org/namespaces/inkscape"
   version="1.1"
   id="svg3736"
   xml:space="preserve"
   width="6000.001"
   height="5044.7085"
   viewBox="0 0 6000.001 5044.7085"
   sodipodi:docname="logo-full.svg"
   inkscape:version="0.92.3 (2405546, 2018-03-11)"
   inkscape:export-filename="/home/felicianotech/Desktop/church-logo/samples-round-2.png"
   inkscape:export-xdpi="9.5900002"
   inkscape:export-ydpi="9.5900002"><metadata
     id="metadata3742"><rdf:RDF><cc:Work
         rdf:about=""><dc:format>image/svg+xml</dc:format><dc:type
           rdf:resource="http://purl.org/dc/dcmitype/StillImage" /><dc:title></dc:title></cc:Work></rdf:RDF></metadata><defs
     id="defs3740"><clipPath
       clipPathUnits="userSpaceOnUse"
       id="clipPath3764-8-8"><path
         d="M 50.5439,456.897 H 449.456 V 139.367 H 50.5439 Z"
         id="path3762-3-6"
         inkscape:connector-curvature="0" /></clipPath><clipPath
       clipPathUnits="userSpaceOnUse"
       id="clipPath3780-7-5"><path
         d="M 73.1431,438.908 H 426.857 V 157.355 H 73.1431 Z"
         id="path3778-93-17"
         inkscape:connector-curvature="0" /></clipPath></defs><sodipodi:namedview
     pagecolor="#ffffff"
     bordercolor="#666666"
     borderopacity="1"
     objecttolerance="10"
     gridtolerance="10"
     guidetolerance="10"
     inkscape:pageopacity="0"
     inkscape:pageshadow="2"
     inkscape:window-width="3098"
     inkscape:window-height="1689"
     id="namedview3738"
     showgrid="false"
     inkscape:pagecheckerboard="true"
     inkscape:zoom="0.0885"
     inkscape:cx="1865.7761"
     inkscape:cy="1838.9126"
     inkscape:window-x="102"
     inkscape:window-y="55"
     inkscape:window-maximized="1"
     inkscape:current-layer="g3744"
     fit-margin-top="0"
     fit-margin-left="0"
     fit-margin-right="0"
     fit-margin-bottom="0" /><g
     id="g3744"
     inkscape:groupmode="layer"
     inkscape:label="268054-P5IZAC-326"
     transform="matrix(1.3333333,0,0,-1.3333333,-21250.629,-14064.693)"><g
       id="g3758-5-2"
       transform="matrix(9.4005698,0,0,9.4005698,15837.83,-14843.612)"><g
         id="g3760-8-6" /><g
         id="g3772-4-8"><g
           clip-path="url(#clipPath3764-8-8)"
           id="g3770-3-2"
           style="opacity:0.52999902"><g
             transform="translate(250,456.897)"
             id="g3768-7-1"><path
               d="m 0,0 c -110.156,0 -199.456,-89.299 -199.456,-199.456 0,-44.186 14.368,-85.017 38.687,-118.074 l 324.634,4.33 c 22.438,32.263 35.591,71.468 35.591,113.744 C 199.456,-89.299 110.156,0 0,0"
               style="fill:#b6e4fb;fill-opacity:1;fill-rule:nonzero;stroke:none"
               id="path3766-13-82"
               inkscape:connector-curvature="0" /></g></g></g></g><g
       id="g3774-80-4"
       transform="matrix(9.4005698,0,0,9.4005698,15837.83,-14843.612)"><g
         id="g3776-9-0" /><g
         id="g3788-7-9"><g
           clip-path="url(#clipPath3780-7-5)"
           id="g3786-9-0"
           style="opacity:0.52999902"><g
             transform="translate(250,438.9082)"
             id="g3784-93-8"><path
               d="m 0,0 c -97.675,0 -176.857,-79.181 -176.857,-176.856 0,-39.18 12.74,-75.385 34.304,-104.697 l 287.852,3.84 c 19.895,28.608 31.558,63.37 31.558,100.857 C 176.857,-79.181 97.675,0 0,0"
               style="fill:#d2f2ff;fill-opacity:1;fill-rule:nonzero;stroke:none"
               id="path3782-24-2"
               inkscape:connector-curvature="0" /></g></g></g></g><g
       id="g3792-7-3"
       transform="matrix(9.4005698,0,0,9.4005698,15837.83,-14843.612)" /><path
       d="m 18187.972,-10889.855 c -798.701,0 -1446.184,-647.474 -1446.184,-1446.174 0,-320.381 104.187,-616.433 280.513,-856.11 l 2353.8,31.398 c 162.676,233.914 258.055,518.178 258.055,824.712 0,798.7 -647.483,1446.174 -1446.184,1446.174"
       style="fill:#d2f2ff;fill-opacity:1;fill-rule:nonzero;stroke:none;stroke-width:9.40056992"
       id="path3798-0-8"
       inkscape:connector-curvature="0" /><g
       id="g3822-7-2"
       transform="matrix(10.938601,0,0,10.938601,20437.973,-13784.586)"><path
         d="m 0,0 c 0,0 -47.786,20.626 -110.196,19.267 -27.315,-0.599 -57.425,-5.413 -87.56,-18.001 -0.625,-0.257 -1.249,-0.523 -1.873,-0.787 V 0 c -0.129,0.085 -0.257,0.162 -0.386,0.239 -0.024,-0.016 -0.042,-0.025 -0.068,-0.043 -0.103,-0.059 -0.214,-0.129 -0.316,-0.196 v 0.479 c -1.71,0.752 -3.43,1.48 -5.148,2.171 -18.387,7.475 -37.089,11.896 -55.252,14.171 -3.19,0.402 -6.363,0.735 -9.51,1.009 -6.2,0.538 -12.331,0.847 -18.334,0.941 C -349.924,19.849 -399.275,0.308 -400.02,0.009 l 31.103,78.58 5.943,15.034 0.684,1.719 7.235,18.274 c 0,0 0.581,0.257 1.685,0.702 8.124,3.36 44.528,17.573 82.01,20.011 3.386,0.213 6.781,0.341 10.159,0.35 2.044,0.008 4.079,-0.034 6.114,-0.111 1.197,-0.043 2.386,-0.111 3.566,-0.188 2.668,-0.172 5.311,-0.428 7.927,-0.778 1.138,-0.154 2.267,-0.317 3.387,-0.514 1.839,-0.299 3.66,-0.65 5.464,-1.051 13.153,-2.933 25.202,-8.56 34.728,-18.053 17.677,17.608 43.998,21.91 69.962,20.43 37.678,-2.146 74.578,-16.471 83.199,-20.002 0.23,-0.094 0.444,-0.189 0.631,-0.266 0.822,-0.341 1.249,-0.53 1.249,-0.53 l 9.475,-23.936 14.29,-36.087 3.225,-8.15 1.736,-4.386 1.043,-2.635 z"
         style="fill:#a1cc3a;fill-opacity:1;fill-rule:nonzero;stroke:none"
         id="path3824-5-9"
         inkscape:connector-curvature="0" /></g><g
       id="g3850-1-0"
       transform="matrix(10.938601,0,0,10.938601,20072.843,-12967.984)"><path
         d="M 0,0 C 0,0 16.547,-9.025 22.081,4.765 25.784,13.996 28.59,49.834 19.913,54.487 11.237,59.141 -12.608,25.901 -11.649,15.809 -10.566,4.41 0,0 0,0"
         style="fill:#94d4b1;fill-opacity:1;fill-rule:nonzero;stroke:none"
         id="path3852-74-3"
         inkscape:connector-curvature="0" /></g><g
       id="g3854-1-1"
       transform="matrix(10.938601,0,0,10.938601,20056.329,-13189.533)"><path
         d="M 0,0 15.004,63.05 -3.572,0.542 Z"
         style="fill:#736358;fill-opacity:1;fill-rule:nonzero;stroke:none"
         id="path3856-71-70"
         inkscape:connector-curvature="0" /></g><g
       id="g3858-11-4"
       transform="matrix(10.938601,0,0,10.938601,20141.776,-12813.54)"><path
         d="m 0,0 -6.255,15.255 4.642,-15.82 c 0.133,-0.455 0.609,-0.714 1.062,-0.581 0.454,0.133 0.714,0.608 0.581,1.063 C 0.021,-0.055 0.013,-0.026 0,0"
         style="fill:#736358;fill-opacity:1;fill-rule:nonzero;stroke:none"
         id="path3860-7-6"
         inkscape:connector-curvature="0" /></g><g
       id="g3862-0-3"
       transform="matrix(10.938601,0,0,10.938601,20111.727,-12737.61)"><path
         d="M 0,0 1.743,6.874 -0.814,0.261 c -0.085,-0.221 0.025,-0.469 0.245,-0.555 0.219,-0.085 0.468,0.024 0.554,0.245 C -0.01,-0.033 -0.003,-0.016 0,0"
         style="fill:#736358;fill-opacity:1;fill-rule:nonzero;stroke:none"
         id="path3864-4-8"
         inkscape:connector-curvature="0" /></g><g
       id="g3866-0-3"
       transform="matrix(10.938601,0,0,10.938601,20115.99,-12764.562)"><path
         d="m 0,0 -4.639,0.646 4.072,-2.258 0.023,-0.015 c 0.422,-0.233 0.952,-0.081 1.186,0.339 0.234,0.423 0.083,0.953 -0.339,1.187 C 0.207,-0.048 0.103,-0.013 0,0"
         style="fill:#736358;fill-opacity:1;fill-rule:nonzero;stroke:none"
         id="path3868-85-1"
         inkscape:connector-curvature="0" /></g><g
       id="g3870-1-16"
       transform="matrix(10.938601,0,0,10.938601,20304.413,-12724.835)"><path
         d="m 0,0 c 0,0 -0.937,-0.562 -2.343,-1.404 -0.351,-0.211 -0.733,-0.44 -1.135,-0.681 -0.402,-0.243 -0.849,-0.456 -1.297,-0.699 -0.902,-0.476 -1.864,-0.983 -2.823,-1.489 -1.969,-0.936 -3.909,-1.914 -5.413,-2.553 -1.491,-0.663 -2.484,-1.105 -2.484,-1.105 l -0.019,-0.008 c -0.432,-0.194 -0.627,-0.699 -0.434,-1.131 0.191,-0.433 0.698,-0.627 1.13,-0.435 0.025,0.011 0.05,0.025 0.075,0.038 0,0 0.955,0.542 2.388,1.355 1.443,0.788 3.302,1.965 5.178,3.094 0.917,0.605 1.834,1.211 2.694,1.778 0.424,0.288 0.849,0.546 1.226,0.826 0.376,0.279 0.734,0.544 1.063,0.787 C -0.878,-0.65 0,0 0,0"
         style="fill:#736358;fill-opacity:1;fill-rule:nonzero;stroke:none"
         id="path3872-66-1"
         inkscape:connector-curvature="0" /></g><g
       id="g3874-2-3"
       transform="matrix(10.938601,0,0,10.938601,20252.081,-12719.776)"><path
         d="m 0,0 c 0,0 -0.059,-0.055 -0.162,-0.15 -0.099,-0.102 -0.265,-0.218 -0.415,-0.41 -0.162,-0.184 -0.354,-0.403 -0.518,-0.663 -0.184,-0.248 -0.331,-0.542 -0.496,-0.829 -0.294,-0.588 -0.537,-1.201 -0.699,-1.664 -0.16,-0.462 -0.265,-0.771 -0.265,-0.771 -0.078,-0.223 0.041,-0.469 0.266,-0.546 0.226,-0.076 0.469,0.043 0.546,0.268 0.008,0.021 0.014,0.045 0.017,0.065 l 10e-4,0.013 c 0,0 0.052,0.313 0.131,0.784 0.081,0.468 0.214,1.084 0.398,1.687 0.108,0.292 0.202,0.597 0.337,0.86 0.116,0.274 0.259,0.507 0.383,0.71 0.115,0.21 0.263,0.355 0.34,0.471 C -0.049,-0.063 0,0 0,0"
         style="fill:#736358;fill-opacity:1;fill-rule:nonzero;stroke:none"
         id="path3876-1-2"
         inkscape:connector-curvature="0" /></g><g
       id="g3878-9-15"
       transform="matrix(10.938601,0,0,10.938601,20243.3,-12816.402)"><path
         d="m 0,0 c 0,0 -0.29,0.073 -0.726,0.184 -0.429,0.113 -0.995,0.295 -1.504,0.528 -0.244,0.137 -0.495,0.248 -0.682,0.406 -0.204,0.135 -0.35,0.297 -0.47,0.426 -0.133,0.119 -0.18,0.266 -0.24,0.339 -0.054,0.08 -0.082,0.125 -0.082,0.125 L -3.75,2.076 c -0.265,0.405 -0.806,0.518 -1.21,0.253 -0.405,-0.265 -0.518,-0.808 -0.254,-1.21 0.058,-0.088 0.132,-0.164 0.209,-0.223 0,0 0.077,-0.058 0.212,-0.156 0.14,-0.088 0.309,-0.258 0.562,-0.361 0.245,-0.122 0.524,-0.253 0.836,-0.324 0.305,-0.102 0.635,-0.125 0.952,-0.172 0.636,-0.044 1.245,-0.01 1.697,0.035 C -0.298,-0.033 0,0 0,0"
         style="fill:#736358;fill-opacity:1;fill-rule:nonzero;stroke:none"
         id="path3880-6-4"
         inkscape:connector-curvature="0" /></g><g
       id="g3882-4-17"
       transform="matrix(10.938601,0,0,10.938601,20260.509,-12615.742)"><path
         d="M 0,0 C 0,0 -0.067,-0.147 -0.187,-0.404 -0.246,-0.533 -0.352,-0.67 -0.454,-0.835 -0.556,-1 -0.714,-1.161 -0.859,-1.35 -1.5,-2.071 -2.523,-2.859 -3.609,-3.542 -4.698,-4.224 -5.836,-4.825 -6.7,-5.255 -7.57,-5.679 -8.151,-5.962 -8.151,-5.962 l -0.004,-0.002 c -0.212,-0.104 -0.302,-0.36 -0.198,-0.573 0.103,-0.212 0.361,-0.3 0.574,-0.196 0.009,0.004 0.019,0.01 0.03,0.016 0,0 0.56,0.332 1.397,0.831 0.836,0.506 1.939,1.209 2.985,1.992 1.046,0.784 2.021,1.673 2.609,2.46 0.137,0.205 0.279,0.378 0.372,0.558 0.09,0.178 0.185,0.325 0.234,0.458 C -0.055,-0.152 0,0 0,0"
         style="fill:#736358;fill-opacity:1;fill-rule:nonzero;stroke:none"
         id="path3884-8-0"
         inkscape:connector-curvature="0" /></g><g
       id="g3886-0-4"
       transform="matrix(10.938601,0,0,10.938601,20188.18,-12531.513)"><path
         d="m 0,0 c 0,0 -0.076,-0.336 -0.187,-0.842 -0.029,-0.126 -0.06,-0.262 -0.092,-0.408 -0.033,-0.144 -0.023,-0.304 -0.035,-0.468 -0.017,-0.332 -0.032,-0.687 -0.048,-1.043 0.037,-0.351 0.075,-0.702 0.109,-1.032 0.018,-0.337 0.099,-0.639 0.175,-0.898 0.143,-0.524 0.236,-0.875 0.236,-0.875 0.064,-0.229 0.299,-0.364 0.529,-0.302 0.229,0.062 0.365,0.298 0.302,0.528 -0.005,0.02 -0.012,0.04 -0.021,0.059 l -0.03,0.066 c 0,0 -0.131,0.3 -0.331,0.748 -0.105,0.226 -0.225,0.491 -0.288,0.799 -0.083,0.303 -0.169,0.628 -0.257,0.953 -0.037,0.334 -0.073,0.666 -0.108,0.978 -0.011,0.158 -0.047,0.31 -0.037,0.459 0.01,0.148 0.019,0.288 0.027,0.418 C -0.023,-0.344 0,0 0,0"
         style="fill:#736358;fill-opacity:1;fill-rule:nonzero;stroke:none"
         id="path3888-8-7"
         inkscape:connector-curvature="0" /></g><g
       id="g3906-1-0"
       transform="matrix(10.938601,0,0,10.938601,20437.973,-13784.586)"><path
         d="m -234.97838,131.8691 c -0.975,-0.795 -3.03962,-2.5001 -4.18562,-3.4751 -12.083,-10.296 -11.117,-14.384 -10.972,-14.82 0.257,-0.744 2.84,-5.961 24.749,-9.082 6.43,-0.924 14.537,-1.659 24.732,-2.044 37.815,-1.428 60.442,-9.141 69.174,-23.585 5.592,-9.254 0.47,-17.642 1.291,-22.919 0.718,-4.6 16.692,-9.03 36.036,-9.03 3.336,0 6.705,0.162 9.997,0.496 2.344,0.239 5.772,0.351 10.185,0.351 14.349,0 37.763,-1.215 55.988,-2.318 L -15.205,38.422 0,0 c 0,0 -98.755,42.63 -197.756,1.266 -0.625,-0.257 -1.249,-0.523 -1.873,-0.787 V 0 c -0.129,0.085 -0.257,0.162 -0.386,0.239 -0.128,-0.077 -0.256,-0.154 -0.384,-0.239 v 0.479 c -1.71,0.752 -3.43,1.48 -5.148,2.171 -7.8,24.21 9.51,35.986 21.156,43.913 11.211,7.628 14.188,10.665 12.349,16.069 -0.137,0.385 -1.77,3.908 -18.711,9.278 -11.083,3.506 -24.492,6.542 -36.319,9.219 -26.159,5.918 -41.227,9.577 -46.828,15.957 -1.77,2.01 -2.925,4.08 -3.566,6.166 -3.327,10.775 6.798,22.311 16.265,31.427"
         style="fill:#bbd332;fill-opacity:1;fill-rule:nonzero;stroke:none"
         id="path3908-0-1"
         inkscape:connector-curvature="0"
         sodipodi:nodetypes="ccccsccscsccccccccccccccccc" /></g><g
       id="g3910-22-3"
       transform="matrix(10.938601,0,0,10.938601,20437.973,-13784.586)"><path
         d="m -240.207,133.088 c -0.556,-0.453 -1.129,-0.932 -1.727,-1.436 -9.724,-8.296 -13.846,-14.846 -12.238,-19.481 0.796,-2.3 3.523,-5.473 11.664,-8.243 7.842,-2.66 20.704,-4.961 41.691,-5.747 35.761,-1.36 57.86,-8.603 65.675,-21.533 4.917,-8.133 2.54,-15.873 0.684,-19.763 -0.29,-0.607 -0.513,-1.471 0.325,-2.814 3.473,-5.498 19.746,-11.433 39.979,-11.433 3.481,0 6.987,0.172 10.425,0.522 2.207,0.214 5.49,0.324 9.757,0.324 14.76,0 39.294,-1.299 57.724,-2.427 L -15.205,38.422 0,0 c 0,0 -98.755,42.63 -197.756,1.266 -0.625,-0.257 -1.249,-0.523 -1.873,-0.787 V 0 c -0.129,0.085 -0.257,0.162 -0.386,0.239 -0.024,-0.016 -0.042,-0.025 -0.068,-0.043 -0.017,0.027 -0.034,0.061 -0.042,0.085 -9.809,23.723 5.687,34.267 18.146,42.75 10.63,7.235 17.001,12.117 13.982,20.978 -3.001,8.816 -34.873,16.025 -58.134,21.294 -24.552,5.549 -39.833,9.235 -44.554,14.605 -0.966,1.103 -1.685,2.241 -2.181,3.404 -0.44,1.028 -0.524,2.484 -0.637,3.591 -0.126,1.234 -0.111,2.479 0.091,3.704 0.466,2.824 1.852,5.401 3.449,7.739 1.818,2.663 3.948,5.11 6.128,7.481 2.268,2.469 4.627,4.854 7.041,7.18"
         style="fill:#f9df94;fill-opacity:1;fill-rule:nonzero;stroke:none"
         id="path3912-9-8"
         inkscape:connector-curvature="0"
         sodipodi:nodetypes="ccccccccscsccccccccccccccccccc" /></g><g
       id="g3914-75-9"
       transform="matrix(10.938601,0,0,10.938601,20437.973,-13784.586)"
       style="fill:#00bcf4;fill-opacity:1"><path
         d="m -243.594,133.602 c -9.124,-7.774 -22.251,-21.14 -5.242,-29.837 8.039,-4.122 22.816,-7.2 47.924,-8.15 66.138,-2.505 70.123,-25.082 64.137,-37.627 -4.601,-9.637 22.619,-20.455 53.302,-17.385 10.578,1.06 44.811,-0.736 68.268,-2.181 L 0,0 c 0,0 -98.755,42.63 -197.756,1.266 -16.129,38.995 40.8,38.286 32.188,63.572 -6.08,17.839 -92.931,25.082 -103.193,36.764 -0.504,0.572 -0.915,1.154 -1.248,1.752 -4.917,8.843 7.542,20.875 18.488,31.026"
         style="fill:#00bcf4;fill-opacity:1;fill-rule:nonzero;stroke:none"
         id="path3916-6-58"
         inkscape:connector-curvature="0"
         sodipodi:nodetypes="cccccccccccc" /></g><g
       id="g3930-4-9"
       transform="matrix(10.938601,0,0,10.938601,19743.158,-12710.627)"><path
         d="m 0,0 c -1.071,6.073 -7.758,4.231 -10.905,2.998 0.266,0.72 1.42,2.179 0.786,4.556 -1.71,6.414 -8.836,1.567 -8.836,1.567 0,0 0.428,10.69 -7.27,13.255 -7.696,2.566 -9.834,-8.551 -9.834,-8.551 0,0 -4.364,6.735 -9.008,1.516 -5.636,-6.331 3.45,-10.923 3.45,-10.923 0,0 -9.406,2.993 -11.117,-3.421 -1.71,-6.413 5.986,-7.268 14.11,-6.841 14.674,0.773 26.51,-0.855 26.51,-0.855 0,0 13.397,-0.57 12.114,6.699"
         style="fill:#33b778;fill-opacity:1;fill-rule:nonzero;stroke:none"
         id="path3932-6-19"
         inkscape:connector-curvature="0" /></g><g
       id="g3934-3-73"
       transform="matrix(10.938601,0,0,10.938601,16307.513,-13333.571)"><path
         d="m 0,0 c 0,0 -14.212,-12.38 -22.587,-0.106 -5.608,8.216 -16.069,42.609 -8.6,49.021 C -23.718,55.329 6.73,28.009 7.97,17.948 9.37,6.584 0,0 0,0"
         style="fill:#33b778;fill-opacity:1;fill-rule:nonzero;stroke:none"
         id="path3936-79-6"
         inkscape:connector-curvature="0" /></g><g
       id="g3938-7-5"
       transform="matrix(10.938601,0,0,10.938601,16371.383,-13546.362)"><path
         d="M 0,0 -28.237,58.335 3.374,1.3 Z"
         style="fill:#736358;fill-opacity:1;fill-rule:nonzero;stroke:none"
         id="path3940-4-64"
         inkscape:connector-curvature="0" /></g><g
       id="g3942-9-07"
       transform="matrix(10.938601,0,0,10.938601,16206.924,-13197.609)"><path
         d="M 0,0 2.82,16.243 1.697,-0.206 C 1.666,-0.677 1.257,-1.032 0.785,-1.001 0.313,-0.969 -0.043,-0.561 -0.011,-0.088 -0.009,-0.059 -0.005,-0.028 0,0"
         style="fill:#736358;fill-opacity:1;fill-rule:nonzero;stroke:none"
         id="path3944-1-5"
         inkscape:connector-curvature="0" /></g><g
       id="g3946-7-6"
       transform="matrix(10.938601,0,0,10.938601,16219.903,-13116.989)"><path
         d="M 0,0 -3.183,6.336 0.739,0.43 C 0.87,0.232 0.816,-0.034 0.62,-0.164 0.422,-0.295 0.157,-0.242 0.025,-0.045 0.016,-0.03 0.007,-0.015 0,0"
         style="fill:#736358;fill-opacity:1;fill-rule:nonzero;stroke:none"
         id="path3948-0-0"
         inkscape:connector-curvature="0" /></g><g
       id="g3950-6-9"
       transform="matrix(10.938601,0,0,10.938601,16221.553,-13144.23)"><path
         d="M 0,0 4.39,1.631 0.903,-1.452 0.881,-1.472 c -0.36,-0.319 -0.912,-0.285 -1.231,0.076 -0.318,0.362 -0.285,0.913 0.076,1.233 C -0.192,-0.092 -0.097,-0.036 0,0"
         style="fill:#736358;fill-opacity:1;fill-rule:nonzero;stroke:none"
         id="path3952-0-9"
         inkscape:connector-curvature="0" /></g><g
       id="g3954-8-3"
       transform="matrix(10.938601,0,0,10.938601,16028.996,-13146.046)"><path
         d="m 0,0 c 0,0 1.037,-0.347 2.591,-0.866 0.388,-0.13 0.81,-0.271 1.255,-0.419 0.445,-0.152 0.927,-0.264 1.417,-0.404 0.983,-0.271 2.03,-0.558 3.078,-0.846 2.124,-0.49 4.23,-1.027 5.836,-1.327 1.597,-0.326 2.663,-0.543 2.663,-0.543 l 0.02,-0.004 c 0.464,-0.095 0.763,-0.547 0.668,-1.011 -0.094,-0.464 -0.546,-0.762 -1.01,-0.668 -0.027,0.005 -0.055,0.013 -0.081,0.02 0,0 -1.049,0.324 -2.624,0.809 C 12.234,-4.8 10.166,-4.052 8.09,-3.353 7.064,-2.959 6.039,-2.565 5.077,-2.197 4.6,-2.008 4.128,-1.849 3.701,-1.655 3.272,-1.463 2.867,-1.281 2.494,-1.115 0.998,-0.446 0,0 0,0"
         style="fill:#736358;fill-opacity:1;fill-rule:nonzero;stroke:none"
         id="path3956-53-6"
         inkscape:connector-curvature="0" /></g><g
       id="g3958-9-3"
       transform="matrix(10.938601,0,0,10.938601,16079.005,-13129.83)"><path
         d="M 0,0 C 0,0 0.069,-0.04 0.191,-0.111 0.309,-0.189 0.497,-0.267 0.686,-0.422 0.882,-0.567 1.117,-0.74 1.333,-0.958 1.568,-1.161 1.774,-1.416 1.996,-1.661 2.411,-2.171 2.78,-2.719 3.038,-3.135 3.292,-3.553 3.462,-3.83 3.462,-3.83 3.586,-4.032 3.522,-4.298 3.32,-4.421 3.117,-4.544 2.853,-4.479 2.729,-4.277 c -0.012,0.019 -0.022,0.04 -0.031,0.06 l -0.004,0.013 c 0,0 -0.119,0.295 -0.296,0.737 -0.181,0.44 -0.442,1.013 -0.752,1.561 C 1.478,-1.644 1.32,-1.366 1.132,-1.139 0.959,-0.896 0.77,-0.7 0.604,-0.528 0.447,-0.347 0.272,-0.237 0.17,-0.142 0.062,-0.051 0,0 0,0"
         style="fill:#736358;fill-opacity:1;fill-rule:nonzero;stroke:none"
         id="path3960-4-6"
         inkscape:connector-curvature="0" /></g><g
       id="g3962-1-3"
       transform="matrix(10.938601,0,0,10.938601,16108.408,-13222.295)"><path
         d="M 0,0 C 0,0 0.268,0.135 0.668,0.338 1.064,0.541 1.578,0.839 2.025,1.177 2.232,1.362 2.454,1.525 2.602,1.721 2.773,1.896 2.879,2.086 2.969,2.237 3.075,2.383 3.088,2.535 3.132,2.62 3.166,2.709 3.185,2.76 3.185,2.76 L 3.214,2.836 C 3.386,3.289 3.891,3.516 4.342,3.345 4.793,3.173 5.021,2.667 4.85,2.217 4.813,2.118 4.757,2.029 4.693,1.954 4.693,1.954 4.631,1.882 4.522,1.756 4.404,1.641 4.275,1.438 4.05,1.282 3.838,1.11 3.591,0.923 3.303,0.786 3.027,0.62 2.711,0.526 2.412,0.413 1.798,0.232 1.198,0.135 0.747,0.081 0.299,0.033 0,0 0,0"
         style="fill:#736358;fill-opacity:1;fill-rule:nonzero;stroke:none"
         id="path3964-5-3"
         inkscape:connector-curvature="0" /></g><g
       id="g3966-41-22"
       transform="matrix(10.938601,0,0,10.938601,16048.357,-13030.047)"><path
         d="m 0,0 c 0,0 0.098,-0.13 0.27,-0.355 0.085,-0.114 0.218,-0.224 0.353,-0.363 0.136,-0.138 0.324,-0.262 0.508,-0.414 0.78,-0.567 1.95,-1.116 3.157,-1.55 1.211,-0.431 2.451,-0.772 3.388,-1.006 0.941,-0.227 1.568,-0.377 1.568,-0.377 L 9.249,-4.067 C 9.479,-4.123 9.621,-4.354 9.565,-4.584 9.51,-4.813 9.278,-4.955 9.048,-4.898 c -0.011,0.002 -0.023,0.005 -0.033,0.009 0,0 -0.618,0.203 -1.544,0.51 -0.925,0.314 -2.153,0.762 -3.344,1.302 -1.189,0.54 -2.333,1.198 -3.079,1.841 -0.176,0.17 -0.353,0.309 -0.482,0.463 C 0.44,-0.618 0.315,-0.495 0.239,-0.377 0.087,-0.137 0,0 0,0"
         style="fill:#736358;fill-opacity:1;fill-rule:nonzero;stroke:none"
         id="path3968-5-3"
         inkscape:connector-curvature="0" /></g><g
       id="g3970-5-4"
       transform="matrix(10.938601,0,0,10.938601,16100.849,-12932.209)"><path
         d="M 0,0 C 0,0 0.146,-0.312 0.364,-0.782 0.418,-0.899 0.478,-1.025 0.541,-1.16 0.604,-1.294 0.628,-1.453 0.677,-1.61 0.763,-1.932 0.855,-2.274 0.947,-2.618 0.987,-2.97 1.026,-3.321 1.063,-3.65 1.118,-3.983 1.104,-4.295 1.086,-4.564 1.06,-5.108 1.043,-5.47 1.043,-5.47 1.032,-5.707 0.83,-5.89 0.593,-5.879 c -0.237,0.012 -0.421,0.213 -0.409,0.45 0.001,0.022 0.003,0.042 0.007,0.064 l 0.015,0.069 c 0,0 0.065,0.322 0.162,0.804 0.055,0.242 0.115,0.526 0.111,0.841 0.014,0.315 0.029,0.65 0.043,0.986 C 0.487,-2.332 0.451,-2 0.417,-1.687 0.395,-1.53 0.397,-1.373 0.355,-1.229 0.314,-1.088 0.275,-0.953 0.239,-0.829 0.096,-0.332 0,0 0,0"
         style="fill:#736358;fill-opacity:1;fill-rule:nonzero;stroke:none"
         id="path3972-4-5"
         inkscape:connector-curvature="0" /></g><g
       id="g3974-9-43"
       transform="matrix(10.938601,0,0,10.938601,19348.567,-12863.736)"><path
         d="M 0,0 C 0,0 19.541,-0.322 18.048,16.215 17.049,27.287 1.642,64.387 -9.358,64.613 -20.358,64.839 -25.972,18.698 -20.749,8.646 -13.317,-5.658 0,0 0,0"
         style="fill:#94d4b1;fill-opacity:1;fill-rule:nonzero;stroke:none"
         id="path3976-83-3"
         inkscape:connector-curvature="0" /></g><g
       id="g3978-85-4"
       transform="matrix(10.938601,0,0,10.938601,19379.963,-13036.413)"><path
         d="M 0,0 -10.89,69.096 -3.788,-0.926 Z"
         style="fill:#736358;fill-opacity:1;fill-rule:nonzero;stroke:none"
         id="path3980-2-5"
         inkscape:connector-curvature="0" /></g><g
       id="g3982-22-65"
       transform="matrix(10.938601,0,0,10.938601,19311.008,-12626.008)"><path
         d="M 0,0 -12.503,12.66 -1.378,-1.229 c 0.318,-0.396 0.899,-0.462 1.298,-0.142 0.399,0.319 0.463,0.9 0.143,1.298 C 0.044,-0.048 0.022,-0.023 0,0"
         style="fill:#736358;fill-opacity:1;fill-rule:nonzero;stroke:none"
         id="path3984-70-4"
         inkscape:connector-curvature="0" /></g><g
       id="g3986-3-9"
       transform="matrix(10.938601,0,0,10.938601,19249.863,-12562.545)"><path
         d="m 0,0 -1.081,7.577 0.159,-7.651 c 0.007,-0.256 0.219,-0.459 0.474,-0.452 0.255,0.005 0.459,0.214 0.453,0.471 C 0.004,-0.037 0.001,-0.018 0,0"
         style="fill:#736358;fill-opacity:1;fill-rule:nonzero;stroke:none"
         id="path3988-46-1"
         inkscape:connector-curvature="0" /></g><g
       id="g3990-3-9"
       transform="matrix(10.938601,0,0,10.938601,19265.171,-12587.712)"><path
         d="M 0,0 -4.896,-1.257 0.095,-1.842 0.124,-1.847 C 0.642,-1.908 1.109,-1.538 1.17,-1.021 1.229,-0.504 0.861,-0.037 0.344,0.023 0.227,0.038 0.106,0.029 0,0"
         style="fill:#736358;fill-opacity:1;fill-rule:nonzero;stroke:none"
         id="path3992-63-5"
         inkscape:connector-curvature="0" /></g><g
       id="g3994-3-60"
       transform="matrix(10.938601,0,0,10.938601,19436.974,-12470.741)"><path
         d="m 0,0 c 0,0 -0.707,-0.946 -1.763,-2.365 -0.265,-0.354 -0.551,-0.738 -0.855,-1.142 -0.301,-0.41 -0.66,-0.805 -1.006,-1.232 -0.706,-0.844 -1.458,-1.745 -2.209,-2.645 -1.581,-1.742 -3.115,-3.514 -4.355,-4.77 -1.215,-1.273 -2.027,-2.12 -2.027,-2.12 l -0.016,-0.018 c -0.351,-0.368 -0.339,-0.954 0.032,-1.306 0.367,-0.353 0.953,-0.339 1.305,0.03 0.022,0.022 0.041,0.045 0.061,0.067 0,0 0.73,0.934 1.826,2.334 1.118,1.378 2.491,3.315 3.9,5.213 0.668,0.981 1.335,1.96 1.96,2.88 0.306,0.461 0.626,0.893 0.885,1.327 0.262,0.434 0.51,0.846 0.739,1.224 C -0.609,-1.01 0,0 0,0"
         style="fill:#736358;fill-opacity:1;fill-rule:nonzero;stroke:none"
         id="path3996-4-4"
         inkscape:connector-curvature="0" /></g><g
       id="g3998-4-1"
       transform="matrix(10.938601,0,0,10.938601,19382.644,-12487.171)"><path
         d="m 0,0 c 0,0 -0.036,-0.078 -0.1,-0.216 -0.056,-0.142 -0.174,-0.326 -0.248,-0.58 -0.084,-0.249 -0.185,-0.548 -0.242,-0.873 -0.085,-0.325 -0.108,-0.677 -0.155,-1.031 -0.053,-0.708 -0.043,-1.421 -0.018,-1.949 0.034,-0.527 0.053,-0.879 0.053,-0.879 0.016,-0.254 0.236,-0.45 0.49,-0.433 0.256,0.015 0.451,0.233 0.435,0.489 0,0.025 -0.003,0.05 -0.009,0.073 l -0.004,0.014 c 0,0 -0.077,0.334 -0.191,0.836 -0.112,0.502 -0.232,1.17 -0.295,1.847 -0.013,0.336 -0.045,0.679 -0.017,0.997 0.003,0.321 0.052,0.611 0.092,0.866 0.027,0.256 0.115,0.461 0.146,0.61 C -0.022,-0.083 0,0 0,0"
         style="fill:#736358;fill-opacity:1;fill-rule:nonzero;stroke:none"
         id="path4000-3-8"
         inkscape:connector-curvature="0" /></g><g
       id="g4002-9-4"
       transform="matrix(10.938601,0,0,10.938601,19413.537,-12587.226)"><path
         d="m 0,0 c 0,0 -0.32,-0.045 -0.801,-0.113 -0.475,-0.063 -1.114,-0.116 -1.719,-0.093 -0.298,0.038 -0.594,0.047 -0.846,0.129 -0.259,0.048 -0.471,0.151 -0.645,0.231 -0.181,0.064 -0.289,0.192 -0.379,0.24 -0.085,0.057 -0.133,0.09 -0.133,0.09 L -4.597,0.535 C -5.026,0.83 -5.613,0.719 -5.909,0.29 c -0.294,-0.43 -0.184,-1.018 0.246,-1.312 0.093,-0.065 0.197,-0.111 0.299,-0.137 0,0 0.099,-0.026 0.274,-0.07 0.175,-0.028 0.414,-0.128 0.71,-0.13 0.294,-0.02 0.628,-0.036 0.968,0.021 0.347,0.024 0.684,0.135 1.019,0.218 0.654,0.219 1.247,0.502 1.682,0.731 C -0.285,-0.155 0,0 0,0"
         style="fill:#736358;fill-opacity:1;fill-rule:nonzero;stroke:none"
         id="path4004-7-29"
         inkscape:connector-curvature="0" /></g><g
       id="g4006-2-9"
       transform="matrix(10.938601,0,0,10.938601,19348.385,-12379.858)"><path
         d="m 0,0 c 0,0 -0.008,-0.174 -0.021,-0.479 -0.006,-0.155 -0.056,-0.334 -0.09,-0.54 -0.035,-0.207 -0.125,-0.432 -0.195,-0.68 -0.341,-0.983 -1.041,-2.191 -1.844,-3.317 -0.808,-1.128 -1.698,-2.195 -2.383,-2.979 -0.695,-0.78 -1.158,-1.301 -1.158,-1.301 l -0.004,-0.003 c -0.169,-0.191 -0.152,-0.483 0.039,-0.653 0.19,-0.17 0.482,-0.152 0.651,0.038 0.009,0.01 0.018,0.021 0.025,0.031 0,0 0.421,0.559 1.054,1.401 0.627,0.848 1.439,2.003 2.163,3.214 0.72,1.211 1.33,2.499 1.596,3.526 0.051,0.261 0.121,0.492 0.14,0.709 0.017,0.214 0.053,0.401 0.046,0.553 C 0.006,-0.174 0,0 0,0"
         style="fill:#736358;fill-opacity:1;fill-rule:nonzero;stroke:none"
         id="path4008-5-8"
         inkscape:connector-curvature="0" /></g><g
       id="g4010-89-3"
       transform="matrix(10.938601,0,0,10.938601,19241.606,-12325.442)"><path
         d="M 0,0 C 0,0 0.063,-0.368 0.159,-0.918 0.183,-1.055 0.208,-1.205 0.235,-1.362 0.261,-1.52 0.338,-1.675 0.391,-1.844 0.513,-2.183 0.643,-2.543 0.772,-2.904 0.954,-3.24 1.135,-3.576 1.305,-3.891 1.462,-4.22 1.666,-4.487 1.849,-4.715 2.205,-5.181 2.443,-5.491 2.443,-5.491 2.6,-5.693 2.891,-5.732 3.095,-5.576 c 0.203,0.155 0.24,0.447 0.085,0.65 -0.014,0.018 -0.03,0.036 -0.045,0.051 l -0.056,0.054 c 0,0 -0.256,0.244 -0.64,0.611 -0.196,0.181 -0.426,0.397 -0.616,0.678 -0.205,0.27 -0.426,0.559 -0.644,0.847 C 1.004,-2.368 0.832,-2.05 0.669,-1.754 0.592,-1.6 0.493,-1.462 0.442,-1.31 0.392,-1.159 0.343,-1.015 0.299,-0.883 0.12,-0.354 0,0 0,0"
         style="fill:#736358;fill-opacity:1;fill-rule:nonzero;stroke:none"
         id="path4012-02-5"
         inkscape:connector-curvature="0" /></g><g
       id="g4014-47-38"
       transform="matrix(10.938601,0,0,10.938601,19726.056,-12892.481)"><path
         d="M 0,0 C 0,0 21.961,-7.734 26.51,11.516 29.557,24.404 26.142,72.138 13.797,76.542 1.452,80.947 -22.293,30.925 -20.184,17.598 -17.182,-1.369 0,0 0,0"
         style="fill:#33b778;fill-opacity:1;fill-rule:nonzero;stroke:none"
         id="path4016-6-7"
         inkscape:connector-curvature="0" /></g><g
       id="g4018-5-5"
       transform="matrix(10.938601,0,0,10.938601,19696.412,-13099.438)"><path
         d="M 0,0 13.756,82.184 -4.631,0.383 Z"
         style="fill:#736358;fill-opacity:1;fill-rule:nonzero;stroke:none"
         id="path4020-7-4"
         inkscape:connector-curvature="0" /></g><g
       id="g4022-1-3"
       transform="matrix(10.938601,0,0,10.938601,19773.282,-12609.686)"><path
         d="m 0,0 -9.352,19.022 7.331,-19.89 c 0.21,-0.569 0.843,-0.861 1.415,-0.651 0.571,0.21 0.861,0.843 0.651,1.413 C 0.031,-0.07 0.018,-0.034 0,0"
         style="fill:#736358;fill-opacity:1;fill-rule:nonzero;stroke:none"
         id="path4024-3-3"
         inkscape:connector-curvature="0" /></g><g
       id="g4026-33-0"
       transform="matrix(10.938601,0,0,10.938601,19728.129,-12514.903)"><path
         d="M 0,0 1.638,8.969 -1.068,0.264 c -0.09,-0.292 0.073,-0.601 0.364,-0.69 0.289,-0.091 0.599,0.07 0.688,0.362 C -0.009,-0.044 -0.005,-0.021 0,0"
         style="fill:#736358;fill-opacity:1;fill-rule:nonzero;stroke:none"
         id="path4028-8-78"
         inkscape:connector-curvature="0" /></g><g
       id="g4030-5-4"
       transform="matrix(10.938601,0,0,10.938601,19735.937,-12549.112)"><path
         d="m 0,0 -6.007,0.425 5.419,-2.542 0.032,-0.018 C 0.005,-2.398 0.673,-2.156 0.937,-1.596 1.2,-1.034 0.959,-0.367 0.397,-0.104 0.271,-0.043 0.132,-0.008 0,0"
         style="fill:#736358;fill-opacity:1;fill-rule:nonzero;stroke:none"
         id="path4032-1-44"
         inkscape:connector-curvature="0" /></g><g
       id="g4034-08-9"
       transform="matrix(10.938601,0,0,10.938601,19974.194,-12481.744)"><path
         d="m 0,0 c 0,0 -1.155,-0.803 -2.886,-2.007 -0.432,-0.3 -0.9,-0.626 -1.396,-0.969 -0.495,-0.349 -1.049,-0.66 -1.602,-1.012 C -7,-4.676 -8.188,-5.41 -9.378,-6.144 c -2.442,-1.372 -4.845,-2.795 -6.72,-3.747 -1.853,-0.98 -3.088,-1.632 -3.088,-1.632 l -0.025,-0.013 c -0.537,-0.284 -0.744,-0.95 -0.459,-1.488 0.283,-0.538 0.951,-0.742 1.489,-0.459 0.032,0.017 0.062,0.036 0.092,0.053 0,0 1.179,0.78 2.945,1.949 1.783,1.136 4.065,2.807 6.372,4.42 1.126,0.856 2.249,1.711 3.301,2.515 0.521,0.405 1.045,0.773 1.501,1.166 0.46,0.392 0.894,0.763 1.296,1.103 C -1.071,-0.911 0,0 0,0"
         style="fill:#736358;fill-opacity:1;fill-rule:nonzero;stroke:none"
         id="path4036-76-8"
         inkscape:connector-curvature="0" /></g><g
       id="g4038-35-51"
       transform="matrix(10.938601,0,0,10.938601,19906.607,-12479.816)"><path
         d="m 0,0 c 0,0 -0.07,-0.075 -0.195,-0.206 -0.117,-0.14 -0.32,-0.303 -0.498,-0.562 -0.19,-0.251 -0.418,-0.55 -0.604,-0.896 -0.218,-0.335 -0.378,-0.723 -0.564,-1.107 -0.327,-0.779 -0.585,-1.588 -0.754,-2.195 -0.163,-0.607 -0.273,-1.013 -0.273,-1.013 -0.079,-0.292 0.097,-0.597 0.392,-0.674 0.294,-0.08 0.597,0.094 0.675,0.389 0.009,0.028 0.014,0.057 0.017,0.085 v 0.018 c 0,0 0.039,0.407 0.1,1.017 0.062,0.609 0.179,1.408 0.363,2.197 0.112,0.385 0.205,0.785 0.357,1.133 0.126,0.362 0.289,0.671 0.43,0.944 0.128,0.279 0.305,0.478 0.396,0.635 C -0.057,-0.085 0,0 0,0"
         style="fill:#736358;fill-opacity:1;fill-rule:nonzero;stroke:none"
         id="path4040-08-7"
         inkscape:connector-curvature="0" /></g><g
       id="g4042-04-2"
       transform="matrix(10.938601,0,0,10.938601,19903.765,-12604.52)"><path
         d="M 0,0 C 0,0 -0.38,0.069 -0.947,0.174 -1.509,0.282 -2.25,0.462 -2.924,0.717 -3.246,0.872 -3.579,0.995 -3.832,1.181 -4.106,1.334 -4.307,1.529 -4.473,1.687 -4.655,1.827 -4.728,2.012 -4.812,2.1 -4.886,2.197 -4.929,2.252 -4.929,2.252 L -4.991,2.338 C -5.366,2.833 -6.07,2.929 -6.566,2.556 -7.062,2.18 -7.159,1.475 -6.785,0.98 c 0.081,-0.108 0.181,-0.199 0.288,-0.267 0,0 0.103,-0.067 0.282,-0.183 0.188,-0.098 0.42,-0.301 0.754,-0.414 0.324,-0.134 0.696,-0.278 1.102,-0.342 0.399,-0.103 0.824,-0.105 1.233,-0.137 0.821,0 1.599,0.095 2.176,0.191 C -0.38,-0.068 0,0 0,0"
         style="fill:#736358;fill-opacity:1;fill-rule:nonzero;stroke:none"
         id="path4044-1-7"
         inkscape:connector-curvature="0" /></g><g
       id="g4046-1-9"
       transform="matrix(10.938601,0,0,10.938601,19908.358,-12345.631)"><path
         d="M 0,0 C 0,0 -0.073,-0.194 -0.203,-0.535 -0.269,-0.706 -0.394,-0.89 -0.51,-1.11 -0.626,-1.33 -0.814,-1.551 -0.985,-1.805 -1.743,-2.786 -2.987,-3.888 -4.322,-4.857 -5.658,-5.828 -7.066,-6.697 -8.138,-7.324 -9.216,-7.943 -9.937,-8.358 -9.937,-8.358 L -9.941,-8.36 c -0.265,-0.152 -0.355,-0.489 -0.204,-0.752 0.152,-0.264 0.489,-0.354 0.751,-0.202 0.014,0.006 0.027,0.016 0.04,0.024 0,0 0.687,0.474 1.719,1.186 1.029,0.722 2.382,1.721 3.656,2.816 1.271,1.097 2.446,2.322 3.133,3.383 0.156,0.275 0.324,0.509 0.427,0.748 0.101,0.236 0.211,0.432 0.26,0.607 C -0.058,-0.2 0,0 0,0"
         style="fill:#736358;fill-opacity:1;fill-rule:nonzero;stroke:none"
         id="path4048-3-6"
         inkscape:connector-curvature="0" /></g><g
       id="g4050-5-0"
       transform="matrix(10.938601,0,0,10.938601,19808.234,-12243.873)"><path
         d="m 0,0 c 0,0 -0.066,-0.438 -0.167,-1.097 -0.025,-0.164 -0.053,-0.342 -0.081,-0.53 -0.029,-0.189 -0.001,-0.394 -0.007,-0.605 0.012,-0.428 0.023,-0.884 0.031,-1.34 0.079,-0.449 0.158,-0.896 0.231,-1.317 0.053,-0.43 0.182,-0.81 0.304,-1.136 0.227,-0.661 0.378,-1.101 0.378,-1.101 0.101,-0.288 0.415,-0.442 0.705,-0.341 0.288,0.098 0.44,0.413 0.34,0.702 -0.007,0.026 -0.018,0.051 -0.031,0.075 L 1.66,-6.608 c 0,0 -0.196,0.372 -0.491,0.931 -0.155,0.279 -0.333,0.609 -0.44,0.998 -0.131,0.383 -0.271,0.793 -0.41,1.201 C 0.241,-3.054 0.166,-2.631 0.094,-2.234 0.065,-2.031 0.005,-1.838 0.006,-1.646 0.005,-1.457 0.005,-1.276 0.004,-1.11 0.002,-0.445 0,0 0,0"
         style="fill:#736358;fill-opacity:1;fill-rule:nonzero;stroke:none"
         id="path4052-93-8"
         inkscape:connector-curvature="0" /></g><g
       id="g4054-4-2"
       transform="matrix(10.938601,0,0,10.938601,16563.316,-13105.72)"><path
         d="m 0,0 c 0,0 -22.284,-6.743 -25.967,12.691 -2.467,13.012 3.082,60.544 15.611,64.392 C 2.173,80.931 23.656,29.896 20.952,16.676 17.104,-2.138 0,0 0,0"
         style="fill:#94d4b1;fill-opacity:1;fill-rule:nonzero;stroke:none"
         id="path4056-1-3"
         inkscape:connector-curvature="0" /></g><g
       id="g4058-5-9"
       transform="matrix(10.938601,0,0,10.938601,16583.659,-13313.799)"><path
         d="M 0,0 -10.063,82.717 4.643,0.176 Z"
         style="fill:#736358;fill-opacity:1;fill-rule:nonzero;stroke:none"
         id="path4060-0-11"
         inkscape:connector-curvature="0" /></g><g
       id="g4062-83-2"
       transform="matrix(10.938601,0,0,10.938601,16528.796,-12821.093)"><path
         d="M 0,0 10.194,18.584 1.98,-0.957 C 1.745,-1.516 1.1,-1.781 0.538,-1.544 -0.022,-1.31 -0.285,-0.664 -0.05,-0.104 -0.035,-0.068 -0.019,-0.033 0,0"
         style="fill:#736358;fill-opacity:1;fill-rule:nonzero;stroke:none"
         id="path4064-56-8"
         inkscape:connector-curvature="0" /></g><g
       id="g4066-5-5"
       transform="matrix(10.938601,0,0,10.938601,16578.147,-12728.424)"><path
         d="M 0,0 -1.233,9.033 1.079,0.215 C 1.155,-0.08 0.979,-0.382 0.686,-0.458 0.391,-0.535 0.09,-0.361 0.013,-0.065 0.007,-0.045 0.003,-0.021 0,0"
         style="fill:#736358;fill-opacity:1;fill-rule:nonzero;stroke:none"
         id="path4068-9-3"
         inkscape:connector-curvature="0" /></g><g
       id="g4070-90-5"
       transform="matrix(10.938601,0,0,10.938601,16568.822,-12762.254)"><path
         d="M 0,0 6.02,0.155 0.493,-2.142 0.459,-2.157 c -0.572,-0.239 -1.229,0.033 -1.466,0.605 -0.238,0.572 0.033,1.229 0.605,1.465 0.13,0.056 0.27,0.084 0.402,0.087"
         style="fill:#736358;fill-opacity:1;fill-rule:nonzero;stroke:none"
         id="path4072-7-2"
         inkscape:connector-curvature="0" /></g><g
       id="g4074-63-9"
       transform="matrix(10.938601,0,0,10.938601,16333.829,-12684.285)"><path
         d="m 0,0 c 0,0 1.117,-0.854 2.792,-2.135 0.418,-0.318 0.872,-0.666 1.351,-1.029 0.479,-0.371 1.019,-0.707 1.556,-1.084 1.083,-0.736 2.238,-1.523 3.393,-2.31 2.379,-1.48 4.716,-3.009 6.545,-4.044 1.808,-1.062 3.013,-1.768 3.013,-1.768 l 0.024,-0.015 c 0.524,-0.307 0.7,-0.981 0.392,-1.507 -0.308,-0.524 -0.983,-0.699 -1.508,-0.391 -0.031,0.017 -0.061,0.038 -0.09,0.056 0,0 -1.142,0.832 -2.854,2.079 -1.73,1.215 -3.936,2.987 -6.168,4.702 C 7.36,-6.541 6.277,-5.637 5.261,-4.787 4.759,-4.358 4.252,-3.968 3.813,-3.555 3.372,-3.143 2.954,-2.752 2.568,-2.395 1.028,-0.959 0,0 0,0"
         style="fill:#736358;fill-opacity:1;fill-rule:nonzero;stroke:none"
         id="path4076-7-97"
         inkscape:connector-curvature="0" /></g><g
       id="g4078-61-9"
       transform="matrix(10.938601,0,0,10.938601,16401.421,-12685.385)"><path
         d="M 0,0 C 0,0 0.067,-0.078 0.186,-0.215 0.296,-0.36 0.492,-0.532 0.658,-0.799 0.837,-1.058 1.051,-1.366 1.222,-1.72 1.423,-2.065 1.567,-2.46 1.736,-2.851 2.027,-3.645 2.25,-4.464 2.39,-5.079 2.525,-5.692 2.617,-6.103 2.617,-6.103 2.683,-6.397 2.495,-6.694 2.197,-6.759 1.9,-6.825 1.604,-6.638 1.539,-6.339 1.532,-6.312 1.528,-6.282 1.526,-6.253 v 0.018 c 0,0 -0.021,0.408 -0.053,1.019 -0.036,0.612 -0.117,1.415 -0.265,2.212 -0.096,0.39 -0.171,0.793 -0.306,1.148 C 0.794,-1.489 0.644,-1.173 0.515,-0.894 0.399,-0.609 0.232,-0.403 0.148,-0.242 0.054,-0.088 0,0 0,0"
         style="fill:#736358;fill-opacity:1;fill-rule:nonzero;stroke:none"
         id="path4080-50-8"
         inkscape:connector-curvature="0" /></g><g
       id="g4082-65-5"
       transform="matrix(10.938601,0,0,10.938601,16398.692,-12810.1)"><path
         d="m 0,0 c 0,0 0.381,0.053 0.953,0.132 0.566,0.082 1.315,0.23 1.999,0.454 0.33,0.14 0.667,0.248 0.928,0.423 0.282,0.14 0.491,0.327 0.662,0.476 C 4.731,1.617 4.812,1.798 4.9,1.883 4.978,1.976 5.022,2.03 5.022,2.03 L 5.09,2.112 C 5.486,2.59 6.195,2.655 6.674,2.261 7.152,1.862 7.217,1.153 6.821,0.676 6.736,0.571 6.631,0.485 6.522,0.422 6.522,0.422 6.416,0.36 6.231,0.252 6.04,0.162 5.798,-0.029 5.46,-0.128 5.13,-0.248 4.752,-0.375 4.344,-0.42 3.939,-0.506 3.516,-0.488 3.105,-0.502 2.284,-0.466 1.512,-0.335 0.94,-0.214 0.376,-0.085 0,0 0,0"
         style="fill:#736358;fill-opacity:1;fill-rule:nonzero;stroke:none"
         id="path4084-0-5"
         inkscape:connector-curvature="0" /></g><g
       id="g4086-8-2"
       transform="matrix(10.938601,0,0,10.938601,16405.683,-12551.259)"><path
         d="m 0,0 c 0,0 0.064,-0.197 0.18,-0.543 0.057,-0.174 0.173,-0.363 0.279,-0.588 0.107,-0.226 0.284,-0.455 0.444,-0.717 0.714,-1.013 1.908,-2.17 3.197,-3.197 1.292,-1.03 2.659,-1.962 3.702,-2.636 1.05,-0.668 1.75,-1.114 1.75,-1.114 L 9.558,-8.796 C 9.814,-8.96 9.89,-9.3 9.727,-9.557 9.563,-9.814 9.223,-9.889 8.967,-9.726 c -0.013,0.008 -0.026,0.018 -0.038,0.027 0,0 -0.665,0.503 -1.665,1.261 C 6.269,-7.671 4.962,-6.612 3.738,-5.461 2.517,-4.308 1.399,-3.032 0.76,-1.94 0.616,-1.659 0.459,-1.417 0.367,-1.175 0.277,-0.935 0.176,-0.733 0.134,-0.557 0.049,-0.202 0,0 0,0"
         style="fill:#736358;fill-opacity:1;fill-rule:nonzero;stroke:none"
         id="path4088-12-1"
         inkscape:connector-curvature="0" /></g><g
       id="g4090-2-4"
       transform="matrix(10.938601,0,0,10.938601,16510.262,-12454.088)"><path
         d="M 0,0 C 0,0 0.047,-0.441 0.118,-1.103 0.136,-1.268 0.154,-1.447 0.175,-1.636 0.196,-1.826 0.159,-2.03 0.153,-2.241 0.124,-2.667 0.094,-3.123 0.063,-3.579 c -0.099,-0.444 -0.197,-0.887 -0.289,-1.304 -0.072,-0.428 -0.219,-0.801 -0.353,-1.122 -0.257,-0.65 -0.429,-1.083 -0.429,-1.083 -0.113,-0.283 -0.434,-0.423 -0.719,-0.309 -0.282,0.111 -0.421,0.433 -0.309,0.717 0.01,0.025 0.022,0.05 0.036,0.073 l 0.045,0.08 c 0,0 0.214,0.363 0.533,0.908 0.168,0.272 0.36,0.594 0.485,0.978 0.147,0.376 0.306,0.78 0.463,1.181 0.096,0.42 0.189,0.839 0.28,1.233 0.038,0.202 0.106,0.391 0.114,0.583 0.009,0.189 0.018,0.37 0.026,0.536 C -0.021,-0.444 0,0 0,0"
         style="fill:#736358;fill-opacity:1;fill-rule:nonzero;stroke:none"
         id="path4092-6-2"
         inkscape:connector-curvature="0" /></g><g
       id="g4106-9-6"
       transform="matrix(10.938601,0,0,10.938601,19134.26,-13174.728)"><path
         d="m 0,0 c 0,0 -11.214,9.851 0.422,18.276 9.319,6.747 14.035,-3.885 14.035,-3.885 0,0 3.049,14.214 13.65,10.628 10.6,-3.587 7.344,-8.574 7.344,-8.574 0,0 12.516,13.496 25.235,-0.602 C 68.587,7.084 54.32,-1.597 54.32,-1.597 54.32,-1.597 21.174,-6.316 0,0"
         style="fill:#b4db61;fill-opacity:1;fill-rule:nonzero;stroke:none"
         id="path4108-1-7"
         inkscape:connector-curvature="0" /></g><g
       id="g4110-0-9"
       transform="matrix(10.938601,0,0,10.938601,16568.363,-13450.029)"><path
         d="m 0,0 c 0,0 -13.745,8.668 -2.868,18.055 7.197,6.212 14.504,-1.301 14.504,-1.301 0,0 -1.463,11.219 11.519,12.907 11.097,1.443 8.765,-7.114 8.765,-7.114 0,0 9.888,15.525 24.932,3.941 9.346,-7.197 -3.128,-18.3 -3.128,-18.3 C 53.724,8.188 15.74,11.066 0,0"
         style="fill:#33b778;fill-opacity:1;fill-rule:nonzero;stroke:none"
         id="path4112-4-86"
         inkscape:connector-curvature="0" /></g><g
       id="g4114-2-16"
       transform="matrix(10.938601,0,0,10.938601,19510.863,-13220.437)"><path
         d="m 0,0 c 0,0 -1.571,15.981 7.722,18.23 11.412,2.761 8.465,-8.968 8.465,-8.968 0,0 6.53,16.925 21.755,12.543 11.6,-3.339 5.744,-13.169 5.744,-13.169 0,0 6.46,9.053 12.242,-0.187 4.17,-6.663 -5.186,-11.091 -5.186,-11.091 0,0 -30.645,1.788 -50.742,2.642"
         style="fill:#33b778;fill-opacity:1;fill-rule:nonzero;stroke:none"
         id="path4116-7-7"
         inkscape:connector-curvature="0" /></g><g
       id="g4118-4-1"
       transform="matrix(10.938601,0,0,10.938601,16238.613,-13617.975)"><path
         d="m 0,0 c -3.158,-1.046 -8.827,5.075 -2.545,13.059 6.841,8.694 14.021,-1.198 14.021,-1.198 0,0 -0.393,18.137 15.355,19.869 11.999,1.322 10.318,-9.997 10.318,-9.997 0,0 9.477,8.001 14.466,3.583 C 60.3,17.625 47.962,13.984 47.962,13.984 47.962,13.984 22.112,7.323 0,0"
         style="fill:#b4db61;fill-opacity:1;fill-rule:nonzero;stroke:none"
         id="path4120-03-0"
         inkscape:connector-curvature="0" /></g><g
       id="g4122-2-00"
       transform="matrix(10.938601,0,0,10.938601,20336.577,-14332.05)"><path
         d="m 0,0 c -1.245,0 -2.509,0.304 -3.679,0.941 -1.382,0.754 -3.021,1.703 -4.919,2.8 -22.624,13.083 -82.339,47.615 -153.694,16.447 -5.913,-9.245 -16.26,-14.485 -28.836,-14.485 -12.126,0 -22.201,5.241 -28.072,14.488 -71.351,31.161 -131.065,-3.367 -153.687,-16.45 -1.898,-1.097 -3.537,-2.046 -4.919,-2.8 -3.732,-2.033 -8.407,-0.659 -10.442,3.072 -2.036,3.731 -0.661,8.406 3.071,10.442 1.214,0.662 2.775,1.566 4.584,2.611 11.94,6.906 34.166,19.758 63.671,26.632 36.522,8.507 72.293,4.98 106.32,-10.487 1.573,-0.715 2.86,-1.938 3.653,-3.472 2.964,-5.735 8.287,-8.642 15.821,-8.642 4.528,0 12.705,1.122 16.592,8.642 0.794,1.534 2.079,2.757 3.653,3.472 34.029,15.465 69.799,18.992 106.32,10.487 C -35.058,36.825 -12.832,23.972 -0.892,17.066 0.916,16.021 2.479,15.117 3.692,14.455 7.424,12.419 8.799,7.744 6.764,4.013 5.367,1.452 2.726,0 0,0"
         style="fill:#f14f41;fill-opacity:1;fill-rule:nonzero;stroke:none"
         id="path4124-80-3"
         inkscape:connector-curvature="0" /></g><path
       inkscape:connector-curvature="0"
       id="path4128-7-5"
       style="fill:#0078b0;fill-opacity:1;fill-rule:nonzero;stroke:none;stroke-width:10.93860054"
       d="m 20410.552,-14288.125 c -0.263,-0.569 -0.645,-1.127 -1.017,-1.685 -6.749,-11.704 -15.818,-21.144 -26.384,-28.166 -13.75,-9.156 -30.027,-14.024 -46.588,-14.024 -13.564,0 -27.412,3.271 -40.221,10.293 -15.15,8.237 -33.013,18.607 -53.785,30.596 -247.508,143.109 -900.728,520.83 -1681.241,179.874 -64.636,-101.116 -177.818,-158.456 -315.437,-158.456 -132.641,0 -242.826,57.34 -306.991,158.555 -780.524,340.77 -1433.734,-36.864 -1681.154,-179.973 -20.772,-11.989 -38.734,-22.359 -53.785,-30.596 -28.44,-15.521 -61.738,-13.006 -86.809,3.731 -10.577,7.022 -19.646,16.462 -26.384,28.166 -0.372,0.558 -0.744,1.116 -1.028,1.685 -22.26,40.779 -7.296,91.95 33.582,114.21 3.215,1.75 48.075,121.582 48.075,121.582 0,0 8.794,-30.934 2.067,-93.043 130.585,75.575 373.706,216.179 696.417,291.284 399.522,93.076 790.806,54.54 1163.025,-114.681 17.206,-7.766 31.241,-21.231 39.937,-37.967 32.466,-62.777 90.648,-94.587 173.048,-94.587 49.596,0 139.008,12.35 181.483,94.587 8.696,16.736 22.829,30.201 40.035,37.967 372.208,169.122 763.493,207.757 1162.916,114.681 322.83,-75.105 554.269,-211.279 684.865,-286.865 -11.31,22.172 14.024,81.285 14.024,81.285 0,0 41.424,-110.797 47.779,-114.243 40.78,-22.26 55.831,-73.431 33.571,-114.21" /><g
       id="g4130-0-1"
       transform="matrix(10.938601,0,0,10.938601,20437.973,-13784.586)"><path
         d="m 0,0 c 0,0 -4.217,-6.773 -7.27,-15.308 -0.008,-0.025 -0.017,-0.05 -0.025,-0.077 v -0.008 c -1.436,-4.028 -2.608,-8.432 -2.959,-12.708 -0.017,-0.128 -0.025,-0.248 -0.025,-0.377 -0.07,-0.82 -0.094,-1.641 -0.086,-2.454 0.016,-2.402 -3.396,-4.583 -6.551,-2.975 -25.03,12.733 -87.106,41.92 -160.052,12.528 -4.856,-8.338 -14.537,-11.356 -23.431,-11.356 -8.886,0 -17.796,3.018 -22.654,11.356 -76.323,30.752 -140.741,-2.626 -163.292,-14.187 -1.719,-0.881 -3.627,0.273 -3.404,2.625 0.128,1.385 0.137,2.813 0.043,4.25 -0.009,0.12 -0.018,0.231 -0.026,0.35 -0.316,4.302 -1.497,8.74 -2.941,12.794 -0.009,0.026 -0.017,0.042 -0.026,0.06 -3.07,8.578 -7.355,15.393 -7.355,15.393 0,0 125.718,50.549 200.425,0.282 C -124.914,50.455 0,0 0,0"
         style="fill:#f3f1f4;fill-opacity:1;fill-rule:nonzero;stroke:none"
         id="path4132-0-0"
         inkscape:connector-curvature="0" /></g><g
       id="g4134-3-0"
       transform="matrix(10.938601,0,0,10.938601,18171.236,-13917.143)"><path
         d="m 0,0 c -0.137,0.086 -0.778,0.445 -1.855,1.061 -1.241,0.683 -3.028,1.744 -5.345,3.001 -1.189,0.574 -2.514,1.206 -3.951,1.891 -0.71,0.35 -1.462,0.709 -2.232,1.077 -0.778,0.367 -1.625,0.658 -2.471,1.009 -1.711,0.658 -3.515,1.419 -5.448,2.121 -1.958,0.642 -4.019,1.317 -6.166,2.018 -2.163,0.667 -4.464,1.189 -6.807,1.821 -0.59,0.154 -1.18,0.334 -1.787,0.453 -0.607,0.12 -1.223,0.248 -1.838,0.368 -1.232,0.248 -2.481,0.496 -3.755,0.753 -0.633,0.128 -1.265,0.265 -1.915,0.376 -0.65,0.094 -1.3,0.188 -1.959,0.29 -1.308,0.19 -2.642,0.386 -3.985,0.582 -1.342,0.223 -2.71,0.342 -4.088,0.488 -1.376,0.145 -2.77,0.291 -4.172,0.435 -2.814,0.266 -5.687,0.369 -8.578,0.565 -2.907,0.06 -5.849,0.145 -8.816,0.145 -5.927,-0.068 -11.956,-0.272 -17.959,-0.811 l -4.506,-0.351 c -1.497,-0.163 -2.993,-0.325 -4.49,-0.488 -2.985,-0.283 -5.943,-0.736 -8.885,-1.119 -2.942,-0.403 -5.849,-0.916 -8.723,-1.37 -2.856,-0.546 -5.695,-1.016 -8.466,-1.599 -2.771,-0.572 -5.49,-1.128 -8.15,-1.736 -1.325,-0.291 -2.642,-0.589 -3.942,-0.88 -1.291,-0.308 -2.574,-0.616 -3.831,-0.915 -5.046,-1.223 -9.783,-2.505 -14.144,-3.746 -4.344,-1.274 -8.33,-2.446 -11.836,-3.574 -3.515,-1.112 -6.55,-2.146 -9.047,-3.019 -2.498,-0.89 -4.456,-1.574 -5.781,-2.078 -0.189,-0.069 -0.36,-0.137 -0.522,-0.197 -0.008,0.026 -0.017,0.042 -0.026,0.06 1.292,0.556 3.395,1.436 6.209,2.531 2.48,0.941 5.481,2.078 8.971,3.302 3.471,1.239 7.422,2.548 11.758,3.89 4.344,1.326 9.073,2.711 14.11,4.028 1.257,0.333 2.531,0.668 3.831,1.001 1.292,0.316 2.609,0.641 3.934,0.966 2.651,0.667 5.396,1.222 8.175,1.821 2.771,0.599 5.618,1.095 8.492,1.66 2.882,0.47 5.798,1.009 8.757,1.428 2.95,0.41 5.926,0.881 8.936,1.188 1.497,0.171 3.002,0.342 4.507,0.514 l 4.532,0.393 c 6.046,0.496 12.118,0.667 18.096,0.701 2.984,-0.026 5.952,-0.128 8.876,-0.205 2.925,-0.214 5.815,-0.342 8.654,-0.624 1.411,-0.155 2.814,-0.309 4.208,-0.462 1.385,-0.155 2.762,-0.299 4.113,-0.547 1.351,-0.232 2.694,-0.454 4.011,-0.676 0.658,-0.111 1.317,-0.214 1.967,-0.325 0.65,-0.12 1.291,-0.282 1.932,-0.419 1.274,-0.282 2.532,-0.557 3.763,-0.829 0.624,-0.137 1.231,-0.275 1.847,-0.411 0.608,-0.137 1.197,-0.326 1.787,-0.488 2.361,-0.684 4.661,-1.256 6.824,-1.975 2.147,-0.752 4.208,-1.471 6.166,-2.155 1.924,-0.778 3.72,-1.59 5.414,-2.318 0.846,-0.376 1.684,-0.692 2.454,-1.086 0.761,-0.401 1.505,-0.786 2.214,-1.154 1.42,-0.735 2.72,-1.411 3.892,-2.019 2.3,-1.325 4.027,-2.488 5.242,-3.223 C -0.77,0.487 -0.154,0.103 0,0"
         style="fill:#bebec0;fill-opacity:1;fill-rule:nonzero;stroke:none"
         id="path4136-4-9"
         inkscape:connector-curvature="0" /></g><g
       id="g4138-9-5"
       transform="matrix(10.938601,0,0,10.938601,16126.183,-13861.199)"><path
         d="m 0,0 c 0,0 2.765,1.277 7.727,3.228 4.967,1.927 12.105,4.607 20.848,7.288 4.368,1.349 9.131,2.715 14.202,4.041 5.07,1.327 10.448,2.62 16.061,3.726 11.213,2.261 23.323,4.012 35.519,4.8 12.196,0.7 24.471,0.421 35.842,-1.095 11.378,-1.464 21.782,-4.288 30.332,-7.584 2.142,-0.816 4.159,-1.687 6.066,-2.538 1.881,-0.91 3.677,-1.744 5.307,-2.643 3.303,-1.717 6.05,-3.447 8.296,-4.883 2.217,-1.485 3.924,-2.699 5.047,-3.581 1.136,-0.863 1.742,-1.323 1.742,-1.323 0,0 -0.625,0.434 -1.796,1.248 -1.154,0.838 -2.923,1.957 -5.172,3.375 -2.283,1.361 -5.071,2.995 -8.406,4.597 -3.318,1.632 -7.147,3.299 -11.423,4.846 -4.272,1.553 -8.993,2.98 -14.063,4.168 -5.069,1.191 -10.484,2.13 -16.118,2.847 -5.636,0.702 -11.499,1.132 -17.465,1.254 C 106.58,21.903 100.513,21.756 94.461,21.377 82.351,20.673 70.298,19.009 59.125,16.83 53.539,15.734 48.154,14.581 43.079,13.353 38.003,12.129 33.229,10.859 28.849,9.597 20.086,7.071 12.854,4.714 7.842,2.918 2.824,1.14 0,0 0,0"
         style="fill:#bebec0;fill-opacity:1;fill-rule:nonzero;stroke:none"
         id="path4140-27-98"
         inkscape:connector-curvature="0" /></g><g
       id="g4142-4-2"
       transform="matrix(10.938601,0,0,10.938601,18171.236,-13998.145)"><path
         d="m 0,0 c -0.145,0.068 -0.821,0.394 -1.941,0.949 -1.283,0.633 -3.164,1.557 -5.559,2.728 -2.428,1.112 -5.438,2.318 -8.851,3.762 -1.753,0.608 -3.617,1.258 -5.575,1.942 -0.992,0.325 -1.976,0.726 -3.028,1.035 -1.043,0.299 -2.12,0.606 -3.215,0.924 -2.189,0.615 -4.447,1.343 -6.858,1.829 -1.197,0.274 -2.412,0.548 -3.652,0.839 -0.615,0.137 -1.24,0.282 -1.864,0.428 -0.624,0.136 -1.266,0.23 -1.907,0.34 -1.291,0.224 -2.591,0.454 -3.908,0.676 -1.317,0.224 -2.651,0.488 -4.011,0.616 -1.36,0.162 -2.728,0.334 -4.122,0.496 -1.385,0.18 -2.779,0.369 -4.198,0.437 -5.67,0.478 -11.545,0.718 -17.514,0.633 -1.488,-0.027 -2.985,-0.044 -4.49,-0.069 -1.505,-0.078 -3.01,-0.163 -4.515,-0.248 -1.505,-0.102 -3.019,-0.129 -4.532,-0.292 l -4.524,-0.435 -2.266,-0.214 -2.258,-0.291 c -1.505,-0.195 -3.002,-0.385 -4.507,-0.581 -1.496,-0.205 -2.984,-0.48 -4.464,-0.71 -1.488,-0.256 -2.976,-0.453 -4.438,-0.762 -2.925,-0.597 -5.849,-1.101 -8.705,-1.777 -1.429,-0.326 -2.848,-0.642 -4.268,-0.958 -1.402,-0.359 -2.788,-0.71 -4.173,-1.061 -2.771,-0.659 -5.448,-1.497 -8.098,-2.198 -2.634,-0.778 -5.208,-1.547 -7.697,-2.351 -2.48,-0.813 -4.908,-1.6 -7.217,-2.429 -2.335,-0.786 -4.567,-1.616 -6.705,-2.42 -4.275,-1.616 -8.166,-3.173 -11.587,-4.617 -3.42,-1.447 -6.371,-2.789 -8.783,-3.926 -1.137,-0.539 -2.154,-1.025 -3.052,-1.463 -0.009,0.12 -0.018,0.231 -0.026,0.351 0.838,0.479 1.796,0.992 2.856,1.556 2.36,1.249 5.251,2.738 8.62,4.345 1.668,0.821 3.48,1.634 5.379,2.514 1.915,0.839 3.925,1.744 6.055,2.609 4.232,1.77 8.885,3.557 13.853,5.293 2.489,0.863 5.062,1.701 7.697,2.549 2.651,0.795 5.344,1.649 8.132,2.368 1.386,0.376 2.788,0.752 4.19,1.129 1.429,0.342 2.856,0.683 4.293,1.026 2.873,0.735 5.815,1.282 8.783,1.89 1.47,0.325 2.976,0.521 4.472,0.795 1.505,0.24 3.011,0.522 4.524,0.744 1.514,0.196 3.028,0.402 4.55,0.607 l 2.283,0.299 2.292,0.232 4.592,0.419 c 1.522,0.162 3.062,0.179 4.583,0.281 1.531,0.078 3.062,0.146 4.576,0.223 1.53,0.017 3.044,0.035 4.558,0.042 3.027,0.095 6.029,-0.076 8.988,-0.196 0.743,-0.025 1.479,-0.052 2.223,-0.086 0.727,-0.059 1.462,-0.128 2.189,-0.187 1.463,-0.129 2.907,-0.257 4.344,-0.385 1.437,-0.095 2.848,-0.309 4.25,-0.505 1.403,-0.197 2.797,-0.393 4.165,-0.582 1.377,-0.17 2.72,-0.47 4.054,-0.726 1.325,-0.265 2.642,-0.522 3.933,-0.779 0.65,-0.137 1.292,-0.248 1.924,-0.393 0.633,-0.171 1.257,-0.325 1.882,-0.488 1.24,-0.325 2.462,-0.631 3.668,-0.949 2.412,-0.572 4.678,-1.385 6.867,-2.087 1.095,-0.35 2.164,-0.7 3.216,-1.043 1.043,-0.342 2.035,-0.778 3.01,-1.154 1.941,-0.787 3.788,-1.522 5.515,-2.224 3.379,-1.616 6.329,-2.966 8.706,-4.189 C -4.951,2.813 -3.121,1.779 -1.873,1.069 -0.787,0.444 -0.145,0.085 0,0"
         style="fill:#bebec0;fill-opacity:1;fill-rule:nonzero;stroke:none"
         id="path4144-25-0"
         inkscape:connector-curvature="0" /></g><g
       id="g4146-2-80"
       transform="matrix(10.938601,0,0,10.938601,20358.454,-13952.03)"><path
         d="m 0,0 c -0.009,-0.025 -0.018,-0.051 -0.025,-0.077 -0.035,0.009 -0.069,0.016 -0.103,0.034 -1.325,0.505 -3.284,1.189 -5.781,2.078 -2.497,0.873 -5.532,1.907 -9.048,3.02 -3.506,1.128 -7.49,2.299 -11.835,3.574 -4.361,1.24 -9.1,2.522 -14.145,3.745 -1.257,0.3 -2.54,0.607 -3.831,0.915 -1.299,0.291 -2.616,0.59 -3.942,0.881 -2.659,0.607 -5.379,1.163 -8.149,1.735 -2.772,0.583 -5.611,1.053 -8.467,1.6 -2.872,0.453 -5.78,0.967 -8.723,1.369 -2.941,0.384 -5.9,0.837 -8.885,1.119 -1.496,0.163 -2.993,0.325 -4.489,0.488 l -4.507,0.351 c -6.003,0.539 -12.032,0.743 -17.958,0.812 -2.967,0 -5.909,-0.085 -8.817,-0.146 -2.891,-0.195 -5.764,-0.299 -8.577,-0.564 -1.403,-0.145 -2.796,-0.29 -4.173,-0.436 -1.377,-0.145 -2.745,-0.265 -4.088,-0.487 -1.343,-0.197 -2.676,-0.393 -3.984,-0.582 -0.66,-0.103 -1.309,-0.197 -1.959,-0.29 -0.65,-0.112 -1.283,-0.248 -1.916,-0.376 -1.274,-0.257 -2.523,-0.505 -3.753,-0.753 -0.617,-0.12 -1.233,-0.248 -1.84,-0.368 -0.607,-0.12 -1.196,-0.299 -1.787,-0.454 -2.343,-0.631 -4.643,-1.154 -6.807,-1.821 -2.146,-0.701 -4.207,-1.376 -6.166,-2.017 -1.932,-0.703 -3.737,-1.463 -5.447,-2.121 -0.847,-0.351 -1.694,-0.642 -2.471,-1.009 -0.77,-0.368 -1.522,-0.728 -2.232,-1.077 -1.437,-0.686 -2.763,-1.318 -3.951,-1.892 -2.318,-1.257 -4.105,-2.317 -5.345,-3.001 -1.077,-0.615 -1.719,-0.975 -1.856,-1.061 0.154,0.103 0.77,0.488 1.805,1.138 1.214,0.735 2.941,1.899 5.242,3.224 1.172,0.607 2.471,1.283 3.891,2.018 0.71,0.369 1.454,0.753 2.215,1.155 0.769,0.393 1.607,0.71 2.454,1.086 1.693,0.727 3.489,1.54 5.413,2.317 1.959,0.685 4.019,1.403 6.166,2.155 2.164,0.719 4.464,1.291 6.824,1.976 0.59,0.162 1.181,0.35 1.787,0.487 0.616,0.137 1.223,0.275 1.848,0.411 1.23,0.273 2.488,0.547 3.762,0.829 0.641,0.137 1.283,0.299 1.932,0.419 0.652,0.112 1.309,0.214 1.968,0.325 1.317,0.222 2.659,0.445 4.011,0.676 1.35,0.248 2.727,0.393 4.113,0.547 1.394,0.153 2.796,0.308 4.207,0.462 2.839,0.282 5.73,0.41 8.654,0.624 2.925,0.077 5.893,0.18 8.877,0.205 5.977,-0.034 12.049,-0.205 18.095,-0.701 l 4.533,-0.393 c 1.504,-0.171 3.01,-0.342 4.506,-0.513 3.011,-0.308 5.986,-0.779 8.937,-1.189 2.959,-0.419 5.875,-0.958 8.756,-1.427 2.873,-0.566 5.721,-1.062 8.493,-1.661 2.778,-0.598 5.523,-1.154 8.174,-1.821 1.327,-0.324 2.643,-0.649 3.934,-0.966 1.291,-0.333 2.574,-0.668 3.831,-1.001 5.037,-1.316 9.766,-2.702 14.11,-4.027 4.336,-1.343 8.287,-2.651 11.758,-3.891 3.49,-1.223 6.492,-2.361 8.972,-3.301 C -3.258,1.368 -1.3,0.557 0,0"
         style="fill:#bebec0;fill-opacity:1;fill-rule:nonzero;stroke:none"
         id="path4148-4-5"
         inkscape:connector-curvature="0" /></g><g
       id="g4150-4-0"
       transform="matrix(10.938601,0,0,10.938601,20379.253,-13861.199)"><path
         d="m 0,0 c 0,0 -2.824,1.14 -7.843,2.918 -5.011,1.796 -12.244,4.153 -21.007,6.679 -4.379,1.262 -9.153,2.532 -14.23,3.756 -5.075,1.228 -10.459,2.381 -16.045,3.477 -11.173,2.179 -23.226,3.843 -35.336,4.547 -6.054,0.379 -12.119,0.526 -18.086,0.394 -5.966,-0.122 -11.828,-0.552 -17.465,-1.254 -5.634,-0.717 -11.049,-1.656 -16.118,-2.847 -5.069,-1.188 -9.79,-2.615 -14.063,-4.168 -4.276,-1.547 -8.105,-3.214 -11.422,-4.846 -3.336,-1.602 -6.122,-3.236 -8.406,-4.597 -2.249,-1.418 -4.018,-2.537 -5.172,-3.375 -1.171,-0.814 -1.797,-1.248 -1.797,-1.248 0,0 0.605,0.46 1.743,1.323 1.123,0.882 2.83,2.096 5.048,3.581 2.245,1.436 4.992,3.166 8.294,4.883 1.63,0.899 3.427,1.733 5.308,2.643 1.908,0.851 3.923,1.722 6.067,2.538 8.549,3.296 18.952,6.12 30.331,7.584 11.371,1.516 23.645,1.795 35.842,1.095 12.195,-0.788 24.305,-2.539 35.518,-4.8 5.614,-1.106 10.992,-2.399 16.062,-3.726 5.07,-1.326 9.834,-2.692 14.202,-4.041 8.743,-2.681 15.88,-5.361 20.847,-7.288 C -2.766,1.277 0,0 0,0"
         style="fill:#bebec0;fill-opacity:1;fill-rule:nonzero;stroke:none"
         id="path4152-3-1"
         inkscape:connector-curvature="0" /></g><g
       id="g4154-8-12"
       transform="matrix(10.938601,0,0,10.938601,20325.809,-14091.968)"><path
         d="M 0,0 C -0.018,-0.129 -0.025,-0.248 -0.025,-0.377 -0.812,0 -1.685,0.419 -2.643,0.872 c -2.411,1.137 -5.362,2.48 -8.782,3.926 -3.421,1.444 -7.311,3.001 -11.588,4.617 -2.137,0.804 -4.37,1.634 -6.704,2.42 -2.309,0.829 -4.737,1.616 -7.218,2.429 -2.489,0.804 -5.062,1.573 -7.696,2.351 -2.651,0.701 -5.327,1.539 -8.098,2.198 -1.386,0.351 -2.78,0.702 -4.173,1.061 -1.42,0.316 -2.84,0.632 -4.268,0.958 -2.856,0.676 -5.78,1.18 -8.705,1.777 -1.463,0.309 -2.95,0.506 -4.438,0.762 -1.48,0.231 -2.968,0.505 -4.464,0.71 -1.505,0.196 -3.002,0.386 -4.507,0.581 l -2.258,0.291 -2.266,0.214 -4.523,0.436 c -1.515,0.163 -3.027,0.189 -4.533,0.292 -1.505,0.084 -3.01,0.169 -4.515,0.248 -1.506,0.024 -3.002,0.042 -4.49,0.068 -5.969,0.085 -11.844,-0.154 -17.514,-0.633 -1.42,-0.068 -2.813,-0.257 -4.199,-0.436 -1.394,-0.163 -2.762,-0.334 -4.121,-0.496 -1.36,-0.128 -2.694,-0.393 -4.011,-0.617 -1.317,-0.221 -2.616,-0.452 -3.908,-0.675 -0.642,-0.111 -1.283,-0.205 -1.907,-0.341 -0.624,-0.146 -1.248,-0.291 -1.864,-0.428 -1.24,-0.291 -2.455,-0.564 -3.652,-0.839 -2.412,-0.486 -4.669,-1.214 -6.858,-1.829 -1.095,-0.317 -2.172,-0.625 -3.216,-0.924 -1.051,-0.308 -2.035,-0.71 -3.027,-1.035 -1.958,-0.684 -3.823,-1.334 -5.576,-1.941 -3.412,-1.445 -6.422,-2.651 -8.85,-3.763 -2.395,-1.171 -4.276,-2.095 -5.559,-2.728 -1.12,-0.555 -1.796,-0.88 -1.941,-0.949 0.145,0.085 0.787,0.444 1.873,1.069 1.248,0.71 3.078,1.745 5.413,3.062 2.377,1.223 5.327,2.573 8.705,4.189 1.727,0.703 3.575,1.437 5.517,2.224 0.974,0.376 1.966,0.813 3.009,1.154 1.052,0.343 2.121,0.693 3.215,1.043 2.19,0.703 4.455,1.515 6.867,2.087 1.206,0.318 2.429,0.624 3.669,0.949 0.624,0.164 1.248,0.317 1.881,0.488 0.634,0.145 1.275,0.257 1.925,0.393 1.291,0.257 2.607,0.514 3.934,0.779 1.334,0.257 2.675,0.556 4.053,0.726 1.367,0.189 2.762,0.385 4.164,0.582 1.403,0.197 2.814,0.41 4.25,0.505 1.437,0.128 2.882,0.256 4.345,0.385 0.727,0.059 1.462,0.128 2.189,0.187 0.744,0.035 1.479,0.061 2.223,0.086 2.959,0.12 5.961,0.291 8.988,0.197 1.514,-0.008 3.028,-0.026 4.558,-0.042 1.514,-0.078 3.045,-0.146 4.575,-0.224 1.523,-0.102 3.062,-0.119 4.584,-0.281 l 4.592,-0.419 2.292,-0.232 2.283,-0.298 c 1.523,-0.206 3.036,-0.412 4.55,-0.608 1.522,-0.222 3.019,-0.504 4.523,-0.744 1.497,-0.273 3.001,-0.47 4.473,-0.795 2.968,-0.607 5.908,-1.155 8.782,-1.89 1.437,-0.342 2.865,-0.684 4.285,-1.026 1.411,-0.377 2.813,-0.753 4.199,-1.129 2.787,-0.719 5.481,-1.573 8.132,-2.368 2.634,-0.848 5.209,-1.686 7.697,-2.549 4.969,-1.736 9.62,-3.523 13.853,-5.293 2.129,-0.865 4.139,-1.77 6.055,-2.609 1.898,-0.88 3.711,-1.693 5.379,-2.514 C -7.671,4.054 -4.78,2.565 -2.42,1.316 -1.539,0.847 -0.728,0.41 0,0"
         style="fill:#bebec0;fill-opacity:1;fill-rule:nonzero;stroke:none"
         id="path4156-6-8"
         inkscape:connector-curvature="0" /></g><g
       aria-label="Ros de Agua Viva Queens, NY"
       transform="matrix(0.60841262,0,0,-0.60841262,13835.674,-10203.766)"
       style="font-style:normal;font-variant:normal;font-weight:normal;font-stretch:normal;font-size:865.55108643px;line-height:1;font-family:'Titan One';-inkscape-font-specification:'Titan One';text-align:center;letter-spacing:0px;word-spacing:0px;text-anchor:middle;fill:#000000;fill-opacity:1;stroke:none"
       id="flowRoot935-6-9-5-0-1"><path
         d="m 4483.5974,1885.3032 q 0,11.2522 -52.7987,18.1766 -52.7986,6.9244 -106.4627,6.9244 -52.7987,0 -68.3786,-6.0589 -14.7143,-6.0588 -14.7143,-19.0421 v -556.5493 q 0,-22.5044 56.2608,-32.0254 57.1263,-9.5211 143.6815,-9.5211 86.5551,0 111.656,0.8656 25.9666,0 60.5886,2.5966 34.6221,2.5967 54.5297,8.6555 20.7733,6.0589 45.0087,15.5799 25.101,9.5211 38.9498,25.101 13.8488,14.7144 26.8321,35.4876 23.3699,37.2187 23.3699,106.4628 0,68.3785 -23.3699,115.9839 -22.5044,46.7397 -60.5886,70.9751 99.5384,156.6648 99.5384,199.0768 0,42.412 -170.5136,42.412 -49.3364,0 -68.3785,-4.3278 -19.0421,-4.3277 -24.2355,-19.0421 l -56.2608,-178.3035 -14.7143,-0.8656 z m 0,-310.7328 h 22.5043 q 50.2019,0 50.2019,-77.8996 0,-39.8154 -13.8488,-56.2608 -12.9832,-16.4455 -30.2943,-16.4455 h -28.5631 z"
         id="path3458"
         inkscape:connector-curvature="0" /><path
         d="m 5091.904,1448.1999 v 441.4311 q 0,9.521 -50.202,15.5799 -49.3364,5.1933 -102.135,5.1933 -51.9331,0 -67.513,-4.3278 -14.7144,-5.1933 -14.7144,-16.4454 v -425.8512 q 0,-19.0421 49.3364,-37.2187 49.3364,-18.1765 106.4628,-18.1765 78.7652,0 78.7652,39.8153 z m -30.2943,-212.9256 q 19.9076,0 39.8153,32.891 20.7732,32.8909 20.7732,81.3618 0,12.9833 -75.3029,23.3699 -74.4374,9.521 -123.7738,9.521 -16.4455,0 -30.2943,-20.7732 -12.9833,-20.7732 -12.9833,-47.6053 0,-27.6976 64.0508,-52.7986 64.9164,-25.9666 117.715,-25.9666 z"
         id="path3460"
         inkscape:connector-curvature="0" /><path
         d="m 5419.772,1918.1942 q -64.9163,0 -111.6561,-11.2522 -46.7397,-11.2522 -84.824,-39.8154 -78.7651,-57.1263 -78.7651,-212.9255 0,-138.4882 80.4962,-198.2112 75.3029,-55.3953 194.749,-55.3953 51.0675,0 87.4207,5.1933 36.3531,4.3278 73.5718,19.9077 38.0842,15.5799 60.5886,42.412 23.3699,26.8321 38.0842,74.4374 14.7144,46.7397 14.7144,111.6561 0,131.5637 -74.4374,198.2112 -74.4374,65.7819 -199.9423,65.7819 z m -30.2943,-168.7825 q 6.0589,31.1598 12.1177,37.2187 6.9244,6.0588 17.311,6.0588 11.2522,0 17.3111,-6.0588 6.9244,-6.0589 12.1177,-37.2187 6.0588,-31.1598 6.0588,-77.8996 0,-47.6053 -2.5966,-72.7063 -1.7311,-25.9665 -5.1933,-39.8153 -2.5967,-13.8489 -7.79,-21.6388 -7.7899,-11.2522 -19.0421,-11.2522 -10.3866,0 -17.311,6.9244 -6.9244,6.0589 -12.9833,38.0843 -6.0588,31.1598 -6.0588,89.1517 0,57.992 6.0588,89.1518 z"
         id="path3462"
         inkscape:connector-curvature="0" /><path
         d="m 5981.988,1918.1942 q -143.6815,0 -210.3289,-27.6977 -33.7565,-14.7143 -33.7565,-28.5632 0,-35.4876 20.7732,-83.0929 20.7733,-47.6053 36.3532,-47.6053 8.6555,0 57.9919,19.0421 50.202,19.0422 83.9585,19.0422 34.622,0 45.0086,-4.3278 11.2522,-4.3277 11.2522,-16.4455 0,-12.9832 -17.311,-19.9076 -17.3111,-7.79 -43.2776,-10.3866 -25.9665,-2.5967 -56.2608,-10.3867 -29.4288,-7.7899 -55.3953,-19.9076 -25.9665,-12.1177 -43.2775,-39.8154 -17.3111,-28.5632 -17.3111,-60.5886 0,-32.8909 1.7311,-48.4708 1.7311,-16.4455 13.8489,-45.0087 12.9832,-29.4287 35.4876,-47.6053 23.3698,-18.1766 70.9751,-32.8909 48.4709,-14.7144 108.1939,-14.7144 59.7231,0 99.5384,4.3278 40.6809,3.4622 63.1852,9.521 23.3699,6.0589 38.0843,13.8488 25.101,12.9833 25.101,28.5632 0,33.7565 -24.2355,77.8996 -24.2354,44.1431 -38.9498,44.1431 -13.8488,0 -61.4541,-14.7143 -47.6053,-15.58 -70.1096,-15.58 -36.3532,0 -36.3532,20.7733 0,12.9832 24.2354,19.9076 25.101,6.0589 59.7231,12.9833 34.622,6.9244 69.2441,19.9077 35.4876,12.1177 59.723,45.0086 25.101,32.891 25.101,83.0929 0,169.6481 -241.4888,169.6481 z"
         id="path3464"
         inkscape:connector-curvature="0" /><path
         d="m 6632.8284,1918.1942 q -32.0254,0 -59.7231,-9.5211 -27.6976,-9.5211 -45.8742,-23.3699 -17.311,-13.8488 -30.2943,-37.2187 -12.9832,-23.3699 -19.9076,-44.1431 -6.9245,-21.6388 -10.3867,-52.7986 -5.1933,-45.8742 -5.1933,-104.7317 0,-120.3116 44.1431,-182.6313 44.1431,-63.1852 121.1772,-63.1852 78.7651,0 114.2527,37.2187 7.79,8.6555 12.1178,20.7732 h 6.9244 l -10.3866,-59.723 v -108.1939 q 0,-19.0421 48.4708,-37.2187 48.4709,-18.1766 104.7317,-18.1766 58.8575,0 75.3029,22.5044 6.0589,8.6555 6.0589,17.311 v 614.5413 q 0,9.521 -48.4709,15.5799 -47.6053,5.1933 -92.6139,5.1933 -44.1431,0 -57.1264,-2.5967 -12.1177,-3.4622 -15.5799,-6.9244 -2.5967,-3.4622 -3.4622,-11.2521 l -6.9244,-49.3364 h -6.9244 q -7.79,30.2942 -31.1599,51.0675 -29.4287,26.8321 -89.1517,26.8321 z m 96.9417,-126.3705 q 13.8488,0 20.7732,-17.311 v -231.1022 q 0,-8.6555 -9.5211,-12.9832 -8.6555,-5.1933 -15.5799,-5.1933 -29.4287,0 -29.4287,135.0259 0,71.8408 7.7899,102.1351 8.6556,29.4287 25.9666,29.4287 z"
         id="path3466"
         inkscape:connector-curvature="0" /><path
         d="m 7272.5247,1714.7897 q 0,56.2608 53.6642,56.2608 31.1598,0 81.3618,-20.7733 50.2019,-21.6387 52.7986,-21.6387 16.4455,0 43.2776,49.3364 26.832,49.3364 26.832,72.7063 0,33.7565 -69.244,51.0675 -69.2441,17.311 -135.8916,17.311 -65.7819,0 -110.7905,-10.3866 -44.1431,-10.3866 -72.7063,-25.9665 -27.6976,-16.4455 -49.3364,-39.8154 -20.7732,-23.3699 -31.1599,-44.1431 -10.3866,-21.6388 -16.4454,-47.6053 -8.6555,-38.0843 -8.6555,-78.7652 0,-157.5302 82.2273,-217.2533 40.6809,-30.2943 90.8829,-42.412 50.2019,-12.1177 118.5805,-12.1177 218.9844,0 218.9844,152.337 0,161.8581 -245.8165,161.8581 z m -1.7311,-126.3705 v 57.1264 q 25.101,0 40.6809,-19.9077 16.4455,-19.9077 16.4455,-48.4709 0,-51.933 -26.8321,-51.933 -30.2943,0 -30.2943,63.1852 z"
         id="path3468"
         inkscape:connector-curvature="0" /><path
         d="m 8037.0092,1866.2611 q -1.7311,25.101 -26.8321,34.622 -24.2354,9.5211 -88.2862,9.5211 -64.0508,0 -107.3284,-11.2522 -42.412,-12.1177 -42.412,-30.2943 0,-20.7732 77.0341,-264.8586 77.034,-244.9509 88.2862,-282.1696 4.3278,-11.2522 69.2441,-18.1766 65.7819,-7.79 140.2193,-7.79 75.3029,0 83.0929,25.9666 163.5891,543.566 163.5891,552.2216 0,8.6555 -10.3866,17.311 -24.2354,19.0421 -96.0762,19.0421 -153.2025,0 -156.6647,-36.3531 l -6.0589,-56.2609 h -83.0929 z m 69.2441,-212.9256 -12.9833,-155.7992 h -19.0421 l -14.7144,155.7992 z"
         id="path3470"
         inkscape:connector-curvature="0" /><path
         d="m 8688.0929,1853.2778 v -50.2019 h -6.9245 q -3.4622,4.3277 -12.1177,11.2521 -8.6555,6.0589 -43.2775,17.311 -33.7565,11.2522 -77.0341,11.2522 -42.412,0 -71.8407,-12.9833 -29.4287,-12.9832 -45.8742,-32.0253 -16.4455,-19.9077 -25.9665,-52.7987 -14.7144,-51.0675 -14.7144,-138.4881 0,-100.404 42.412,-154.0681 16.4455,-21.6388 48.4708,-36.3532 32.891,-15.5799 70.1097,-15.5799 37.2187,0 61.4541,8.6555 24.2354,7.79 36.3532,19.0421 24.2354,24.2355 27.6976,42.412 l 0.8655,7.79 h 6.9245 l 7.7899,-33.7565 q 8.6555,-36.3531 136.7571,-36.3531 57.1264,0 69.2441,17.311 6.9244,10.3866 8.6555,19.9077 1.7311,8.6555 1.7311,26.832 v 362.666 q 0,102.135 -66.6475,155.7991 -66.6474,53.6642 -195.6145,53.6642 -136.7571,0 -186.0935,-26.8321 -21.6388,-12.1177 -21.6388,-25.1009 0,-20.7733 16.4455,-70.1097 17.311,-49.3364 32.0254,-49.3364 3.4622,0 24.2354,6.0589 65.7819,17.311 106.4628,17.311 41.5465,0 55.3953,-10.3866 14.7144,-10.3866 14.7144,-32.891 z m -34.6221,-109.0594 q 9.5211,0 15.5799,-6.9244 6.0589,-6.9244 6.0589,-15.5799 v -178.3036 q -3.4622,-18.1765 -19.0421,-18.1765 -32.891,0 -32.891,108.1938 0,50.202 7.79,80.4963 8.6555,30.2943 22.5043,30.2943 z"
         id="path3472"
         inkscape:connector-curvature="0" /><path
         d="m 9142.6831,1918.1942 q -96.9418,0 -135.8916,-50.202 -38.0842,-50.202 -38.0842,-174.8413 V 1457.721 q 0,-17.311 51.0675,-32.891 51.0675,-16.4454 107.3283,-16.4454 75.303,0 75.303,38.9498 v 219.8499 q 0,65.7819 5.1933,96.0762 5.1933,29.4287 25.9665,29.4287 27.6977,0 27.6977,-23.3698 V 1457.721 q 0,-18.1766 53.6641,-33.7565 53.6642,-15.5799 116.8494,-15.5799 63.1852,0 63.1852,33.7565 v 445.7588 q 0,12.1177 -54.5297,17.311 -54.5297,5.1933 -107.3283,5.1933 -52.7986,0 -53.6642,-13.8488 l -8.6555,-56.2608 h -6.9244 q -7.79,31.1598 -31.1598,51.0675 -12.1177,10.3866 -36.3532,19.0421 -23.3699,7.79 -53.6641,7.79 z"
         id="path3474"
         inkscape:connector-curvature="0" /><path
         d="m 9719.7758,1918.1942 q -78.7652,0 -123.7738,-37.2187 -18.1766,-15.58 -32.0254,-45.8742 -12.9833,-30.2943 -12.9833,-70.9752 0,-40.6809 19.0421,-70.9752 19.9077,-30.2943 47.6053,-46.7398 27.6977,-16.4455 64.9164,-26.8321 56.2608,-14.7143 123.7738,-14.7143 h 28.5632 q 0,-35.4876 -24.2355,-50.202 -10.3866,-6.0589 -32.0254,-6.0589 -20.7732,0 -51.0675,11.2522 -29.4287,11.2522 -49.3364,23.3699 -19.9077,11.2522 -26.8321,11.2522 -15.5799,0 -42.412,-40.681 -26.8321,-41.5464 -26.8321,-75.3029 0,-11.2522 32.0254,-29.4287 32.0254,-18.1766 90.0173,-32.891 58.8575,-15.5799 114.2528,-15.5799 55.3953,0 95.2106,9.5211 40.6809,8.6555 65.7819,21.6387 25.9669,12.9833 43.2779,34.6221 18.176,21.6388 26.832,38.9498 9.521,17.311 13.849,45.0086 6.058,32.0254 6.058,78.7652 v 260.5309 q 0,9.521 -46.739,15.5799 -45.8746,5.1933 -91.7488,5.1933 -45.0086,0 -58.8574,-2.5967 -12.9833,-2.5966 -15.58,-6.0588 -2.5966,-3.4622 -4.3277,-12.1177 l -6.9244,-49.3364 h -6.9244 q -21.6388,77.8996 -118.5805,77.8996 z m 115.9838,-143.6815 v -101.2695 q -22.5043,0 -36.3531,19.0421 -13.8489,19.0421 -13.8489,43.2776 0,57.1263 25.9666,57.1263 11.2521,0 17.311,-5.1933 6.9244,-6.0588 6.9244,-12.9832 z"
         id="path3476"
         inkscape:connector-curvature="0" /><path
         d="m 3455.3835,2222.8681 q 0,-10.3866 22.5044,-24.2355 22.5043,-14.7143 63.1852,-25.9665 41.5464,-11.2521 90.0173,-11.2521 48.4709,0 70.9752,13.8488 22.5043,13.8488 24.2354,30.2943 l 30.2943,315.0606 h 12.1177 l 26.8321,-307.2707 q 2.5967,-24.2354 58.8575,-38.0842 56.2608,-13.8488 104.7317,-13.8488 48.4708,0 71.8407,8.6555 23.3699,7.7899 29.4287,16.4454 6.9244,8.6555 6.9244,16.4455 0,6.9244 -12.9832,40.6809 -12.1177,32.8909 -25.9666,70.9752 -45.8742,121.1771 -154.9336,434.5066 -9.5211,26.8321 -148.8748,26.8321 -43.2775,0 -57.1264,-6.0588 -13.8488,-6.0589 -19.0421,-20.7733 -51.0675,-147.1436 -122.0427,-334.1027 -70.9752,-186.959 -70.9752,-192.1523 z"
         id="path3478"
         inkscape:connector-curvature="0" /><path
         d="m 4343.9258,2328.4653 v 426.7167 q 0,9.5211 -50.202,15.5799 -49.3364,5.1933 -102.135,5.1933 -51.9331,0 -67.513,-4.3277 -14.7143,-5.1933 -14.7143,-16.4455 v -411.1368 q 0,-19.0421 48.4708,-37.2187 49.3364,-19.0421 107.3284,-19.0421 78.7651,0 78.7651,40.6809 z m -117.7149,-227.6399 q 57.1263,0 89.1517,17.311 32.891,16.4455 32.891,60.5886 0,77.8996 -121.1772,77.8996 -121.1771,0 -121.1771,-77.8996 0,-77.8996 120.3116,-77.8996 z"
         id="path3480"
         inkscape:connector-curvature="0" /><path
         d="m 4382.5375,2335.3897 q 0,-8.6555 25.1009,-22.5043 25.101,-14.7144 68.3786,-26.8321 43.2775,-12.1177 84.824,-12.1177 83.9584,0 86.5551,40.6809 l 21.6388,275.2452 h 11.2521 l 19.0422,-261.3964 q 1.7311,-21.6388 59.723,-38.0842 57.9919,-16.4455 102.135,-16.4455 44.1431,0 65.7819,7.79 22.5043,7.7899 28.5632,16.4454 6.0588,7.79 6.0588,13.8488 0,6.0589 -37.2187,89.1518 -36.3531,83.0929 -146.2781,354.0104 -8.6555,20.7732 -141.0848,20.7732 -41.5465,0 -54.5297,-4.3277 -12.9833,-5.1933 -17.3111,-16.4455 -59.723,-150.6059 -121.1771,-283.0352 -61.4541,-133.2949 -61.4541,-136.7571 z"
         id="path3482"
         inkscape:connector-curvature="0" /><path
         d="m 5144.3577,2783.7452 q -78.7651,0 -123.7738,-37.2187 -18.1765,-15.5799 -32.0254,-45.8742 -12.9832,-30.2943 -12.9832,-70.9752 0,-40.6809 19.0421,-70.9752 19.9077,-30.2943 47.6053,-46.7398 27.6977,-16.4454 64.9163,-26.832 56.2609,-14.7144 123.7739,-14.7144 h 28.5631 q 0,-35.4876 -24.2354,-50.202 -10.3866,-6.0588 -32.0254,-6.0588 -20.7732,0 -51.0675,11.2521 -29.4287,11.2522 -49.3364,23.3699 -19.9077,11.2522 -26.8321,11.2522 -15.5799,0 -42.412,-40.6809 -26.8321,-41.5465 -26.8321,-75.303 0,-11.2521 32.0254,-29.4287 32.0254,-18.1766 90.0173,-32.8909 58.8575,-15.58 114.2528,-15.58 55.3952,0 95.2106,9.5211 40.6809,8.6555 65.7819,21.6388 25.9665,12.9832 43.2775,34.622 18.1766,21.6388 26.8321,38.9498 9.5211,17.311 13.8488,45.0087 6.0589,32.0254 6.0589,78.7651 v 260.5309 q 0,9.5211 -46.7398,15.5799 -45.8742,5.1933 -91.7484,5.1933 -45.0086,0 -58.8575,-2.5966 -12.9832,-2.5967 -15.5799,-6.0589 -2.5966,-3.4622 -4.3277,-12.1177 l -6.9244,-49.3364 h -6.9245 q -21.6387,77.8996 -118.5805,77.8996 z m 115.9839,-143.6815 v -101.2695 q -22.5043,0 -36.3532,19.0421 -13.8488,19.0422 -13.8488,43.2776 0,57.1264 25.9666,57.1264 11.2521,0 17.311,-5.1933 6.9244,-6.0589 6.9244,-12.9833 z"
         id="path3484"
         inkscape:connector-curvature="0" /><path
         d="m 5736.1106,2453.1047 q 0,-79.6307 23.3698,-138.4882 24.2355,-58.8575 66.6475,-93.4795 83.9584,-68.3786 215.5222,-68.3786 54.5297,0 96.0762,6.9244 42.412,6.9245 83.0929,26.8321 41.5464,19.0422 67.513,51.0675 58.8574,71.8408 58.8574,204.2701 0,132.4293 -38.9498,209.4634 -38.9498,76.1685 -109.0594,103.8661 38.9498,64.0508 38.9498,74.4374 0,19.0421 -19.0421,32.0254 -19.0421,13.8488 -48.4709,19.9077 -54.5297,11.2521 -91.7484,11.2521 -37.2187,0 -51.9331,-7.7899 -13.8488,-6.9244 -23.3698,-29.4288 l -37.2187,-79.6307 q -105.5973,0 -167.917,-77.8996 -62.3196,-78.7651 -62.3196,-244.9509 z m 265.7242,154.0681 q 12.9832,40.6809 39.8153,40.6809 26.8321,0 39.8154,-40.6809 12.9832,-41.5465 12.9832,-129.8327 0,-89.1518 -6.9244,-127.236 -6.9244,-38.9498 -17.311,-49.3364 -10.3866,-11.2522 -28.5632,-11.2522 -18.1766,0 -28.5632,10.3866 -24.2354,25.9666 -24.2354,146.2782 0,119.446 12.9833,160.9925 z"
         id="path3486"
         inkscape:connector-curvature="0" /><path
         d="m 6568.8518,2783.7452 q -96.9417,0 -135.8915,-50.202 -38.0842,-50.2019 -38.0842,-174.8413 V 2323.272 q 0,-17.311 51.0675,-32.8909 51.0675,-16.4455 107.3283,-16.4455 75.303,0 75.303,38.9498 v 219.85 q 0,65.7818 5.1933,96.0761 5.1933,29.4288 25.9665,29.4288 27.6976,0 27.6976,-23.3699 V 2323.272 q 0,-18.1766 53.6642,-33.7565 53.6642,-15.5799 116.8494,-15.5799 63.1852,0 63.1852,33.7565 v 445.7588 q 0,12.1177 -54.5297,17.311 -54.5297,5.1933 -107.3283,5.1933 -52.7986,0 -53.6642,-13.8488 l -8.6555,-56.2608 h -6.9244 q -7.79,31.1598 -31.1599,51.0675 -12.1177,10.3866 -36.3531,19.0421 -23.3699,7.79 -53.6642,7.79 z"
         id="path3488"
         inkscape:connector-curvature="0" /><path
         d="m 7209.1298,2580.3407 q 0,56.2608 53.6641,56.2608 31.1599,0 81.3618,-20.7732 50.202,-21.6388 52.7987,-21.6388 16.4454,0 43.2775,49.3364 26.8321,49.3364 26.8321,72.7063 0,33.7565 -69.2441,51.0675 -69.2441,17.311 -135.8915,17.311 -65.7819,0 -110.7906,-10.3866 -44.1431,-10.3866 -72.7062,-25.9665 -27.6977,-16.4455 -49.3365,-39.8154 -20.7732,-23.3698 -31.1598,-44.1431 -10.3866,-21.6387 -16.4455,-47.6053 -8.6555,-38.0842 -8.6555,-78.7651 0,-157.5303 82.2274,-217.2533 40.6809,-30.2943 90.8828,-42.4121 50.202,-12.1177 118.5805,-12.1177 218.9845,0 218.9845,152.337 0,161.8581 -245.8165,161.8581 z m -1.7311,-126.3705 v 57.1264 q 25.1009,0 40.6809,-19.9077 16.4454,-19.9077 16.4454,-48.4708 0,-51.9331 -26.832,-51.9331 -30.2943,0 -30.2943,63.1852 z"
         id="path3490"
         inkscape:connector-curvature="0" /><path
         d="m 7763.6234,2580.3407 q 0,56.2608 53.6642,56.2608 31.1598,0 81.3618,-20.7732 50.202,-21.6388 52.7986,-21.6388 16.4455,0 43.2776,49.3364 26.832,49.3364 26.832,72.7063 0,33.7565 -69.244,51.0675 -69.2441,17.311 -135.8916,17.311 -65.7818,0 -110.7905,-10.3866 -44.1431,-10.3866 -72.7063,-25.9665 -27.6976,-16.4455 -49.3364,-39.8154 -20.7732,-23.3698 -31.1598,-44.1431 -10.3867,-21.6387 -16.4455,-47.6053 -8.6555,-38.0842 -8.6555,-78.7651 0,-157.5303 82.2273,-217.2533 40.6809,-30.2943 90.8829,-42.4121 50.202,-12.1177 118.5805,-12.1177 218.9844,0 218.9844,152.337 0,161.8581 -245.8165,161.8581 z m -1.7311,-126.3705 v 57.1264 q 25.101,0 40.6809,-19.9077 16.4455,-19.9077 16.4455,-48.4708 0,-51.9331 -26.8321,-51.9331 -30.2943,0 -30.2943,63.1852 z"
         id="path3492"
         inkscape:connector-curvature="0" /><path
         d="m 8612.4047,2488.5923 v 266.5897 q 0,9.5211 -49.3364,15.5799 -49.3364,5.1933 -102.1351,5.1933 -51.933,0 -67.5129,-4.3277 -14.7144,-5.1933 -14.7144,-16.4455 v -275.2452 q 0,-38.9498 -3.4622,-51.0676 -2.5967,-12.1177 -5.1933,-21.6387 -6.0589,-16.4455 -21.6388,-16.4455 -24.2354,0 -24.2354,23.3699 v 341.0271 q 0,9.5211 -49.3364,15.5799 -48.4709,5.1933 -101.2695,5.1933 -51.9331,0 -67.513,-4.3277 -15.5799,-5.1933 -15.5799,-16.4455 v -426.7167 q 0,-18.1766 49.3364,-36.3531 50.202,-18.1766 105.5972,-18.1766 55.3953,0 62.3197,32.0254 l 7.79,38.0842 h 6.0588 q 25.101,-50.2019 86.5551,-70.1096 25.101,-7.79 55.3953,-7.79 87.4207,0 117.7149,52.7986 31.1599,51.9331 31.1599,169.6481 z"
         id="path3494"
         inkscape:connector-curvature="0" /><path
         d="m 8909.1397,2783.7452 q -143.6815,0 -210.3289,-27.6977 -33.7565,-14.7143 -33.7565,-28.5631 0,-35.4876 20.7732,-83.0929 20.7732,-47.6054 36.3532,-47.6054 8.6555,0 57.9919,19.0422 50.2019,19.0421 83.9584,19.0421 34.6221,0 45.0087,-4.3278 11.2522,-4.3277 11.2522,-16.4454 0,-12.9833 -17.3111,-19.9077 -17.311,-7.79 -43.2775,-10.3866 -25.9665,-2.5967 -56.2608,-10.3866 -29.4288,-7.79 -55.3953,-19.9077 -25.9665,-12.1177 -43.2776,-39.8154 -17.311,-28.5631 -17.311,-60.5885 0,-32.891 1.7311,-48.4709 1.7311,-16.4455 13.8488,-45.0086 12.9833,-29.4288 35.4876,-47.6054 23.3699,-18.1765 70.9752,-32.8909 48.4709,-14.7144 108.1939,-14.7144 59.723,0 99.5384,4.3278 40.6809,3.4622 63.1852,9.521 23.3699,6.0589 38.0843,13.8489 25.1009,12.9832 25.1009,28.5632 0,33.7564 -24.2354,77.8995 -24.2354,44.1432 -38.9498,44.1432 -13.8488,0 -61.4541,-14.7144 -47.6053,-15.5799 -70.1097,-15.5799 -36.3531,0 -36.3531,20.7732 0,12.9833 24.2354,19.9077 25.101,6.0588 59.7231,12.9832 34.622,6.9244 69.244,19.9077 35.4876,12.1177 59.7231,45.0087 25.101,32.8909 25.101,83.0929 0,169.648 -241.4888,169.648 z"
         id="path3496"
         inkscape:connector-curvature="0" /><path
         d="m 9213.2322,2734.4088 q -6.0589,-17.3111 -6.0589,-49.3364 0,-32.0254 18.1766,-52.7987 18.1765,-21.6387 73.5718,-21.6387 55.3953,0 73.5719,21.6387 19.0421,21.6388 19.0421,65.7819 0,210.3289 -141.9504,210.3289 -12.9833,0 -25.9665,-31.1598 -12.1177,-31.1598 -12.1177,-49.3364 0,-18.1766 6.0588,-18.1766 17.311,0 28.5632,-8.6555 11.2522,-7.79 13.8488,-16.4455 l 2.5967,-8.6555 q -34.6221,0 -49.3364,-41.5464 z"
         id="path3498"
         inkscape:connector-curvature="0" /><path
         d="m 9896.6523,2750.8542 q 0,11.2522 -53.6642,18.1766 -52.7986,6.9244 -105.5972,6.9244 -52.7986,0 -67.513,-6.0588 -14.7144,-6.0589 -14.7144,-19.0422 v -531.4483 q 0,-21.6388 49.3364,-39.8154 50.202,-18.1765 113.3872,-18.1765 22.5044,0 33.7565,1.7311 29.4288,4.3277 41.5465,37.2187 l 83.0929,223.3121 h 3.4622 v -204.27 q 0,-21.6388 49.3368,-39.8154 49.336,-18.1765 112.521,-18.1765 54.53,0 69.244,20.7732 10.387,14.7143 10.387,26.8321 v 541.8349 q 0,11.2522 -53.664,18.1766 -52.799,6.9244 -116.85,6.9244 -63.1848,0 -69.2437,-16.4454 L 9900.98,2546.5842 h -4.3277 z"
         id="path3500"
         inkscape:connector-curvature="0" /><path
         d="m 10677.704,2750.8542 q 0,11.2522 -52.799,18.1766 -52.798,6.9244 -105.597,6.9244 -51.933,0 -67.513,-5.1933 -15.58,-6.0588 -15.58,-19.9077 v -150.6058 q -171.379,-350.5482 -171.379,-380.8425 0,-18.1766 57.992,-38.0843 57.992,-19.9076 122.043,-19.9076 82.227,0 87.42,48.4708 l 23.37,232.8333 h 9.521 l 16.446,-226.7744 q 1.731,-24.2355 61.454,-38.9498 59.723,-15.5799 113.387,-15.5799 53.664,0 74.438,15.5799 20.773,15.5799 20.773,32.8909 0,16.4455 -173.976,390.3636 z"
         id="path3502"
         inkscape:connector-curvature="0" /></g></g></svg>